<?xml version="1.0" encoding="utf-8"?>
<!-- Generator: Adobe Illustrator 24.1.2, SVG Export Plug-In . SVG Version: 6.00 Build 0)  -->
<svg version="1.1" id="Layer_1" xmlns="http://www.w3.org/2000/svg" xmlns:xlink="http://www.w3.org/1999/xlink" x="0px" y="0px"
	 viewBox="0 0 48 48" style="enable-background:new 0 0 48 48;" xml:space="preserve">
<g>
	<path d="M25.09,3.31c0.77,0.13,1.55,0.23,2.31,0.41c6.06,1.43,10.62,6.46,11.3,12.64c0.62,5.63-1.4,10.22-5.86,13.7
		c-0.52,0.41-0.81,0.86-0.77,1.53c0.03,0.45,0.01,0.9,0.01,1.38c-5.38,0-10.75,0-16.17,0c0-0.49-0.01-0.99,0-1.49
		c0.02-0.57-0.2-0.99-0.66-1.33C11.85,27.6,9.82,24.2,9.3,19.98C8.34,12.31,13.39,5.27,20.88,3.64c0.67-0.14,1.35-0.23,2.03-0.34
		C23.63,3.31,24.36,3.31,25.09,3.31z M24.07,10.05c-1.38,0.01-2.62,0.33-3.79,0.92c-2.93,1.48-5.07,3.81-6.87,6.49
		c-0.32,0.47-0.27,1,0.05,1.47c1.49,2.21,3.24,4.17,5.48,5.64c2.87,1.89,5.87,2.29,8.99,0.65c2.82-1.48,4.9-3.77,6.64-6.38
		c0.32-0.47,0.27-1-0.05-1.47c-1.43-2.13-3.12-4.02-5.24-5.48C27.71,10.79,25.98,10.08,24.07,10.05z"/>
	<path d="M23.24,46.51c-0.51-0.14-1.04-0.23-1.53-0.42c-2.31-0.89-3.73-2.56-4.29-4.97c-0.04-0.18-0.17-0.38-0.32-0.49
		c-0.76-0.57-1.18-1.3-1.18-2.26c-0.01-0.87,0-1.74,0-2.64c5.39,0,10.75,0,16.1,0c0,1.07,0.06,2.15-0.02,3.22
		c-0.05,0.73-0.54,1.27-1.13,1.7c-0.13,0.09-0.25,0.27-0.28,0.42c-0.59,2.84-2.74,4.9-5.63,5.36c-0.07,0.01-0.13,0.05-0.19,0.07
		C24.25,46.51,23.75,46.51,23.24,46.51z"/>
	<path d="M46.01,18.49c-0.35,0.77-0.96,1.05-1.8,1.01c-0.74-0.04-1.49,0-2.23-0.01c-0.71-0.02-1.25-0.5-1.35-1.16
		c-0.09-0.63,0.28-1.25,0.89-1.46c0.18-0.06,0.38-0.07,0.58-0.08c0.73-0.01,1.46,0.03,2.19-0.01c0.84-0.05,1.41,0.26,1.72,1.04
		C46.01,18.04,46.01,18.27,46.01,18.49z"/>
	<path d="M39.18,10.58c-0.68-0.01-1.18-0.36-1.36-0.89c-0.19-0.55-0.05-1.18,0.44-1.5C39.12,7.64,40,7.11,40.9,6.63
		c0.6-0.32,1.33-0.05,1.68,0.53c0.36,0.59,0.24,1.38-0.34,1.76c-0.86,0.55-1.75,1.05-2.64,1.55C39.45,10.56,39.26,10.56,39.18,10.58
		z"/>
	<path d="M8.87,10.62c-0.23-0.08-0.48-0.14-0.7-0.26C7.42,9.94,6.67,9.5,5.93,9.05C5.23,8.62,5.02,7.83,5.41,7.16
		C5.8,6.52,6.59,6.32,7.28,6.72c0.79,0.45,1.58,0.91,2.35,1.39c0.55,0.34,0.75,0.95,0.56,1.54C10.01,10.22,9.49,10.59,8.87,10.62z"
		/>
	<path d="M39.07,25.66c0.23,0.08,0.49,0.13,0.7,0.25c0.76,0.43,1.5,0.87,2.25,1.32c0.71,0.43,0.94,1.21,0.55,1.88
		c-0.39,0.67-1.2,0.86-1.93,0.44c-0.76-0.44-1.53-0.88-2.28-1.35c-0.55-0.34-0.77-0.95-0.59-1.53
		C37.95,26.09,38.46,25.71,39.07,25.66z"/>
	<path d="M10.28,27.19c-0.01,0.34-0.2,0.74-0.62,0.99c-0.8,0.49-1.6,0.97-2.42,1.43c-0.67,0.37-1.46,0.13-1.82-0.51
		c-0.36-0.63-0.18-1.41,0.46-1.8c0.8-0.5,1.6-0.98,2.42-1.43C9.21,25.38,10.28,26.04,10.28,27.19z"/>
	<path d="M4.7,16.79c0.45,0,0.9-0.01,1.35,0c0.72,0.02,1.29,0.57,1.33,1.26c0.04,0.7-0.45,1.33-1.18,1.4
		c-0.6,0.06-1.2,0.02-1.81,0.03c-0.34,0-0.67,0.01-1.01,0c-0.82-0.03-1.41-0.62-1.39-1.38c0.02-0.75,0.6-1.3,1.41-1.31
		C3.83,16.78,4.27,16.79,4.7,16.79C4.7,16.79,4.7,16.79,4.7,16.79z"/>
	<path d="M24.12,12.75c1.56,0.05,2.93,0.78,4.19,1.75c1.27,0.97,2.34,2.14,3.29,3.42c0.08,0.1,0.11,0.34,0.05,0.42
		c-1.35,1.78-2.89,3.36-4.88,4.45c-1.93,1.05-3.83,1-5.73-0.08c-1.92-1.09-3.4-2.65-4.7-4.39c-0.06-0.08-0.06-0.28,0-0.36
		c1.46-1.9,3.1-3.6,5.3-4.65C22.39,12.96,23.19,12.76,24.12,12.75z M19.96,18.14c-0.01,2.21,1.79,4.05,3.99,4.06
		c2.25,0.02,4.08-1.79,4.1-4.04c0.01-2.22-1.81-4.06-4.03-4.06C21.78,14.1,19.96,15.91,19.96,18.14z"/>
	<path d="M25.35,18.14c0.01,0.73-0.59,1.35-1.32,1.37c-0.73,0.01-1.35-0.58-1.37-1.31c-0.02-0.75,0.59-1.38,1.34-1.39
		C24.73,16.8,25.34,17.41,25.35,18.14z"/>
</g>
</svg>
