<svg id="Layer_2" data-name="Layer 2" xmlns="http://www.w3.org/2000/svg" viewBox="0 0 142.25 187.7"><path d="M1341.45,184.89a13.51,13.51,0,0,0-.73-1.53V159.15h-6.07v-6.57H1199.47v187.7h7.83a4.18,4.18,0,0,1,0-.5H1200V153.08h134.18v6.07h-58.48c.29-.6.57-1.23.84-1.9l-.46-.19c-.3.74-.61,1.43-.93,2.09h-26.21c-1.26-1.24-2-2.12-2-2.15l-.39.32c.1.11.71.82,1.7,1.83h-42.64V278.58l-1.94,2.14.37.33,1.57-1.72v18.76h66.77c-1,8.48-1.82,27.79,10.23,31.35l.14-.48c-11.73-3.46-10.85-22.53-9.87-30.87h33.34a70.65,70.65,0,0,1-1.8,6.84l.48.16c.72-2.26,1.32-4.61,1.83-7h27.49v8a4.23,4.23,0,0,1,.5.05v-8.09h6.07V190.62A7.32,7.32,0,0,0,1341.45,184.89Zm-66.59-25.24a15.5,15.5,0,0,1-5.53,6.41,11.93,11.93,0,0,0-1.81.43,10.34,10.34,0,0,0-1.9.85c-6.16.79-12.7-4.37-16.19-7.69Zm-9.21,11.57c.69,2,3.51,3.09,6.28,3.09a9.59,9.59,0,0,0,2.71-.37c2.37-.7,3.44-2.23,2.93-4.23a5.75,5.75,0,0,0-1.34-1.93,9.53,9.53,0,0,1,4.24,5.12c1.09,5-3.16,6.61-5,7.09-4.93,1.27-11.38-.51-12.63-4.77a6.16,6.16,0,0,1,3-7.39l.21,0,.37-.07A3.34,3.34,0,0,0,1265.65,171.22Zm11.45-1.35c.58,2.29-1.38,3.23-2.6,3.59-3.09.92-7.57,0-8.38-2.4a3,3,0,0,1,1.4-3.62,10.77,10.77,0,0,0,1.75-.76,7.41,7.41,0,0,1,1.33-.24h.47a11.8,11.8,0,0,1,1.87.16A5.72,5.72,0,0,1,1277.1,169.87Zm57.05,19.87a1.93,1.93,0,0,1-.72-.94,1.86,1.86,0,0,1,.72-2.17Zm0-3.71A2.4,2.4,0,0,0,1333,189a2.48,2.48,0,0,0,1.19,1.37v4c-7.19,1.93-17.25-.36-19.14-6.2a7.6,7.6,0,0,1,.12-5.47,4.31,4.31,0,0,0,3.74,1.67,5.73,5.73,0,0,0,1.51-.2c1.57-.43,2.32-1.5,2-2.88a4,4,0,0,0-3.71-2.5,13.65,13.65,0,0,1,2.63-1.29,17,17,0,0,1,5.8-1,17.86,17.86,0,0,1,3.71.4,5,5,0,0,0-1.76.26,2.58,2.58,0,0,0-1.89,3.26c.43,1.35,2.19,2.06,3.92,2.06a5.73,5.73,0,0,0,1.51-.19,3.08,3.08,0,0,0,1.57-.94Zm-18.8-4.83a2.17,2.17,0,0,1,1.37-1.6A9.06,9.06,0,0,0,1315.35,181.2Zm2.55-1.93a5.07,5.07,0,0,1,.56-.05,3.56,3.56,0,0,1,3.43,2.17c.35,1.46-.88,2-1.64,2.25-1.8.5-4.35-.07-4.82-1.53a.09.09,0,0,0,0-.05A8.92,8.92,0,0,1,1317.9,179.27Zm16.19.23c.35,1.47-.88,2-1.64,2.25-1.81.5-4.36-.07-4.82-1.53a2.1,2.1,0,0,1,1.58-2.64A3.81,3.81,0,0,1,1334.09,179.5Zm.06-.93a3.71,3.71,0,0,0-1.13-1.07c.39.15.76.3,1.13.47Zm0-1.22a17.58,17.58,0,0,0-13-.37,13.84,13.84,0,0,0-3.42,1.81,4.91,4.91,0,0,0-.86.21,2.59,2.59,0,0,0-1.95,3,8,8,0,0,0-.36,6.3c1.52,4.7,8,7.22,14.32,7.22a20.86,20.86,0,0,0,5.3-.66V226.1l-4.39,13c-5.7,6.73-10.77,9.67-15.06,8.73-6-1.31-8.51-10-8.53-10s-.8-13.83,1.06-21.66c.74-3.08.54-5.46-.57-7.07a4.23,4.23,0,0,0-2.77-1.82l-.06.49a3.86,3.86,0,0,1,2.42,1.62c1,1.49,1.19,3.73.5,6.67-1.89,7.9-1.08,21.66-1.07,21.85.11.37,2.58,9,8.91,10.42a8,8,0,0,0,1.7.18c4.1,0,8.76-3,13.88-9.11l4-11.74v70h-27.38a134.16,134.16,0,0,0,2.4-26.64c1.85-2.59,2.76-6.1,1.92-10.68a24.57,24.57,0,0,0-2.68-5.93c-.1-1-.17-1.64-.17-1.68a10.14,10.14,0,0,0-4.33-7.31c-4.19-2.7-9.74-1.43-10.51-1.23l-9.18-3.59-.18.47,9.26,3.61.07,0,.08,0c.06,0,6-1.57,10.19,1.16a9.59,9.59,0,0,1,4.1,6.95s0,.3.09.78a16.61,16.61,0,0,0-18.12-6.74c-6.84,1.88-13.07,8.54-10.59,18.73,1.79,7.37,9.53,11.33,17,11.33a19.94,19.94,0,0,0,4.17-.43,14.74,14.74,0,0,0,8.37-4.78,132.1,132.1,0,0,1-2.41,26h-33.39c.25-2,.49-3.33.5-3.39l-.49-.1c0,.06-.26,1.39-.51,3.49H1206V278.77L1218.47,265a6.54,6.54,0,0,0,.39.58c1.9,2.5,5.05,3.76,9.35,3.76h.46c4.24-.09,7.52-1.5,9.75-4.2,4.49-5.43,3.23-14.39,3.11-15.19a19,19,0,0,0-.36-3.61l-.49.1c0,.08,1.57,7.48-2.2,12.26-2.08,2.63-5.38,4-9.82,4.08-4.62.09-7.8-1.08-9.45-3.49-2.78-4-.31-10.27-.28-10.33l-.47-.19a17.49,17.49,0,0,0-1,4.22c-.19.66-1.88,6.94.73,11.57L1206,278V159.65h42.64c3.19,3.13,9.39,8.29,15.63,8.29l.45,0a6.49,6.49,0,0,0-2.44,7.44c1,3.58,5.5,5.52,9.87,5.52a13.47,13.47,0,0,0,3.37-.41c4.2-1.07,6.22-3.94,5.39-7.71a10.1,10.1,0,0,0-7.93-6.66,8.47,8.47,0,0,0-2.41-.16h-.2a17.18,17.18,0,0,0,5-6.3h58.73Zm-44.31,69.9a16.19,16.19,0,0,1,18.09,7.28c.27,2.85.73,8.83.75,16.23a14,14,0,0,1-8.48,5.16c-8.28,1.75-18.53-2.06-20.59-10.54h0C1277.21,255.51,1283.23,249.07,1289.84,247.25Zm18.68,8.23a24.58,24.58,0,0,1,2.09,4.91,13.36,13.36,0,0,1-1.44,9.65C1309.13,263.73,1308.78,258.5,1308.52,255.48Zm-91.07.23a8.16,8.16,0,0,0,1.35,3.9c1.69,2.47,4.85,3.72,9.39,3.72h.48c4.6-.08,8-1.52,10.2-4.27a12.49,12.49,0,0,0,2.41-5.76c0,3.22-.41,8.14-3.24,11.57-2.14,2.58-5.29,3.94-9.38,4-4.38.08-7.54-1.11-9.41-3.57C1217,262.41,1217.1,258.34,1217.45,255.71Zm117.2-69.39.36-.16a3.81,3.81,0,0,1,4.88,1.92c.35,1.47-.88,2-1.64,2.25a5.47,5.47,0,0,1-3.6-.29Zm5.57,111.27h-5.57V226.15l3.9-11.5-.47-.16-3.43,10.13V194.7a10.84,10.84,0,0,0,5.57-3.37Zm0-107.12a10.25,10.25,0,0,1-5.57,3.71v-3.6a5.87,5.87,0,0,0,2.23.43,5.33,5.33,0,0,0,1.5-.2,2.76,2.76,0,0,0,1.84-1.32Zm0-2.82a4.32,4.32,0,0,0-5.38-2l-.19.09v-7.56a13.18,13.18,0,0,1,5.57,5.29Zm0-5.1a13.77,13.77,0,0,0-5.57-5V159.65h5.57Zm.5,7v-5c.08.18.18.36.25.55A6.89,6.89,0,0,1,1340.72,189.52Z" transform="translate(-1199.47 -152.58)"/><path d="M1248.78,265.83a5.45,5.45,0,0,0,1.14-.12,3.45,3.45,0,0,0,2.86-4.29c-1-3.23-3.67-4.08-5.72-3.51a3.92,3.92,0,0,0-2.81,4.93C1244.74,264.79,1246.79,265.83,1248.78,265.83Zm-1.59-7.44a4.18,4.18,0,0,1,1.07-.14,4.23,4.23,0,0,1,4,3.29,3,3,0,0,1-2.49,3.68c-2,.44-4.57-.46-5.07-2.5A3.44,3.44,0,0,1,1247.19,258.39Z" transform="translate(-1199.47 -152.58)"/><path d="M1286.89,270.17c.48,1.95,2.53,3,4.52,3a5.38,5.38,0,0,0,1.14-.12,3.46,3.46,0,0,0,2.87-4.29,7.36,7.36,0,0,0-.38-.94l.29-.09-.15-.47-.39.12a4.48,4.48,0,0,0-5.1-2.13A3.91,3.91,0,0,0,1286.89,270.17Zm2.94-4.44a4,4,0,0,1,4.46,1.8l-2.78.85-1.16-2.51-.45.21,1.12,2.45-2.86.87.14.48,2.94-.89,1.56,3.41.46-.21-1.54-3.35,2.84-.87a5.76,5.76,0,0,1,.37.91,3,3,0,0,1-2.48,3.68c-2,.44-4.57-.46-5.08-2.51A3.43,3.43,0,0,1,1289.83,265.73Z" transform="translate(-1199.47 -152.58)"/><path d="M1285.5,260.53a5.38,5.38,0,0,0,1.14-.12,3.46,3.46,0,0,0,2.87-4.29c-.08-.25-.19-.46-.28-.68l.08-.16-.18-.07a4.52,4.52,0,0,0-5.35-2.6,3.92,3.92,0,0,0-2.8,4.93C1281.46,259.49,1283.51,260.53,1285.5,260.53Zm-1.58-7.44a4,4,0,0,1,4.47,1.82l-4.2-1.69-1.91,4.23,4.83,2.23,1.82-3.65a1.33,1.33,0,0,1,.09.21,3,3,0,0,1-2.48,3.68c-2,.44-4.57-.46-5.08-2.5A3.44,3.44,0,0,1,1283.92,253.09Zm4.7,2.45-1.74,3.48-3.94-1.82,1.5-3.34Z" transform="translate(-1199.47 -152.58)"/><path d="M1304.47,180.78c-2.31.82-3.38,2.67-2.74,4.71s3.19,3,5.72,3a8.15,8.15,0,0,0,2.22-.29c2.28-.63,3.36-2.17,2.88-4.14C1311.21,180.67,1307.38,179.73,1304.47,180.78Zm7.61,3.41c.56,2.37-1.59,3.24-2.54,3.51-2.74.76-6.62-.13-7.33-2.37s.81-3.5,2.43-4.08a6.48,6.48,0,0,1,2.2-.38A5.44,5.44,0,0,1,1312.08,184.19Z" transform="translate(-1199.47 -152.58)"/><path d="M1325.36,193.56a5.79,5.79,0,0,0,1.51-.2c1.57-.44,2.31-1.5,2-2.89a4.28,4.28,0,0,0-5.52-2.23,2.56,2.56,0,0,0-1.89,3.26C1321.87,192.84,1323.63,193.56,1325.36,193.56Zm-1.87-4.85a4.23,4.23,0,0,1,1.46-.25,3.58,3.58,0,0,1,3.43,2.16c.35,1.47-.88,2-1.65,2.26-1.8.5-4.35-.07-4.81-1.53A2.09,2.09,0,0,1,1323.49,188.71Z" transform="translate(-1199.47 -152.58)"/><path d="M1297.81,256.74a5.45,5.45,0,0,0,1.14-.12,3.45,3.45,0,0,0,2.86-4.29,5.15,5.15,0,0,0-2.43-3.16l-.09-.77-.57.5a4.47,4.47,0,0,0-2.63-.08,3.91,3.91,0,0,0-2.81,4.92C1293.76,255.69,1295.82,256.74,1297.81,256.74Zm1.62-2.45-4.22-1.67,3.61-3.14.09,0Zm-3.21-5a4,4,0,0,1,2,0l-4,3.49,5.76,2.28-.57-5.24a4.73,4.73,0,0,1,1.88,2.63,3,3,0,0,1-2.49,3.68c-2,.44-4.57-.46-5.07-2.5A3.43,3.43,0,0,1,1296.22,249.3Z" transform="translate(-1199.47 -152.58)"/><path d="M1299.62,265.12c.48,1.95,2.54,3,4.53,3a5.45,5.45,0,0,0,1.14-.12,3.45,3.45,0,0,0,2.86-4.29c-1-3.23-3.67-4.08-5.72-3.51A3.91,3.91,0,0,0,1299.62,265.12Zm2.94-4.44a3.79,3.79,0,0,1,1.07-.15,4.24,4.24,0,0,1,4,3.3,3,3,0,0,1-2.49,3.68c-2,.44-4.57-.46-5.07-2.51A3.42,3.42,0,0,1,1302.56,260.68Z" transform="translate(-1199.47 -152.58)"/><path d="M1304,266.22a2.88,2.88,0,0,0,.59-.06,1.86,1.86,0,0,0,1.52-2.3,2.42,2.42,0,0,0-3-1.84,2.07,2.07,0,0,0-1.49,2.61A2.35,2.35,0,0,0,1304,266.22Zm-.77-3.72a2,2,0,0,1,2.4,1.48,1.37,1.37,0,0,1-1.15,1.69,2,2,0,0,1-2.39-1.16A1.58,1.58,0,0,1,1303.24,262.5Z" transform="translate(-1199.47 -152.58)"/><path d="M1269.18,275a7.37,7.37,0,0,0,.82.05c2.87,0,6.12-1.73,6.82-6.75.21-5.57-2.43-8.6-5.47-9.39a7.22,7.22,0,0,0-2.13-.4H1269c-3.2,0-6.7,2.15-7,7a6.46,6.46,0,0,0,.17,1.88A7.77,7.77,0,0,0,1269.18,275Zm.54-15.8.39,0a5.85,5.85,0,0,1,1.1.17c2.59.92,4.85,3.5,4.83,7.91-.52,4.33-3.67,5.59-6.45,5.35-3-.28-6.17-2.32-6.94-5.33,0-.17,0-.35,0-.53C1263.11,261.73,1266.49,259.19,1269.72,259.19Zm-.48,15.3a7.45,7.45,0,0,1-6.41-5.41,8.86,8.86,0,0,0,6.71,4.05,6,6,0,0,0,.73,0,5.87,5.87,0,0,0,5.94-4.29C1275.3,273.48,1272.07,274.81,1269.24,274.49Zm-2.52-15.09a8,8,0,0,0-4.13,5.1A6.36,6.36,0,0,1,1266.72,259.4Z" transform="translate(-1199.47 -152.58)"/><path d="M1232.86,243a7.31,7.31,0,0,0-2.5-1.27c3.84-2.13,6.62-6.18,5.42-12.6-3.35-10.8-12.26-13.68-19.1-11.77-6,1.68-11.48,7.51-9.29,16.35,1.59,6.46,8.44,9.92,15.08,9.92l.53,0a8.25,8.25,0,0,0-2.67,5.9c-.27,4.72,4.36,8.31,8.85,8.7.26,0,.53,0,.8,0,3.2,0,6.54-1.7,7.1-6.57C1237.09,247.38,1235.26,244.53,1232.86,243Zm-9.29.78a3.15,3.15,0,0,1,.29-.22,17.69,17.69,0,0,0,2.44-.33,15.78,15.78,0,0,0,3-1,8.08,8.08,0,0,1,3.23,1.19,8.58,8.58,0,0,1,2.88,4.4c.64,3.4-1,5.87-4.46,6.61-3.63.78-8.13-.83-9-4.5A6.09,6.09,0,0,1,1223.57,243.79Zm4.62-1.62a15.58,15.58,0,0,1-2,.58c-.46.1-.92.18-1.39.24A7.65,7.65,0,0,1,1228.19,242.17Zm-20.32-8.57c-2.1-8.52,3.16-14.13,8.94-15.74a14.38,14.38,0,0,1,3.89-.53c5.78,0,12,3.43,14.6,11.93,1.19,6.41-1.78,10.34-5.71,12.3a7.63,7.63,0,0,0-3.37.17,7.18,7.18,0,0,0-2.64,1.37C1216.81,243.51,1209.5,240.18,1207.87,233.6Zm21.35,24.11c-4.26-.37-8.64-3.74-8.39-8.17a9.58,9.58,0,0,1,.48-2.48,7.6,7.6,0,0,0,.17,3c.82,3.3,4.3,5.07,7.68,5.07a9.7,9.7,0,0,0,1.95-.2c2.86-.62,5.62-2.82,4.85-7.16a11.74,11.74,0,0,1,.63,3.89C1236,256.55,1232.4,258,1229.22,257.71Z" transform="translate(-1199.47 -152.58)"/><path d="M1220.56,230.74l-5.87,2,0,.06c-.08.11-2,2.8-1,4.77.65,1.25,2.33,1.88,5,1.88h.52l3-5.36Zm-1.7,8.21c-2.6,0-4.21-.5-4.79-1.61-.8-1.54.65-3.78.93-4.18l5.3-1.8,1.27,2.71Z" transform="translate(-1199.47 -152.58)"/><path d="M1221.72,230.84l-.21.13,2.59,4.29.09.09a8,8,0,0,0,3.44,1,2.85,2.85,0,0,0,2.38-1.07c1.78-2.28.09-5.53,0-5.71S1227.91,227,1221.72,230.84Zm7.89,4.13c-1.44,1.85-4.66.22-5.11,0l-2.31-3.8c5.58-3.41,7.39-1.3,7.4-1.3S1231.2,233,1229.61,235Z" transform="translate(-1199.47 -152.58)"/><path d="M1214.94,231.37c4.23,0,5.21-2.23,5.25-2.34l0-.08-1-3-4.81-2.6-.13.15c-.16.17-3.81,4.27-3,6.49a2.39,2.39,0,0,0,2.23,1.31A13.56,13.56,0,0,0,1214.94,231.37Zm-3.15-1.56c-.59-1.54,1.66-4.6,2.73-5.83l4.29,2.32.88,2.62c-.24.41-1.59,2.33-6.08,1.88C1212.62,230.71,1212,230.37,1211.79,229.81Z" transform="translate(-1199.47 -152.58)"/><path d="M1221.91,229.18c.19,0,4.47-1.16,6.58-3.86a1.53,1.53,0,0,0,.33-1.57c-.73-1.83-5.59-2.58-5.79-2.61l-.15,0-3.22,4.42,2.07,3.69Zm1.19-7.52c1.43.23,4.75,1,5.25,2.28a1,1,0,0,1-.25,1.07c-1.77,2.26-5.28,3.39-6.13,3.64l-1.72-3.07Z" transform="translate(-1199.47 -152.58)"/><path d="M1246.2,224.86l-8.73,13.43a3.2,3.2,0,0,0-.84,2.43,2.12,2.12,0,0,0,1.42,1.43c2.62,1.06,33.13,13.92,33.43,14a4.63,4.63,0,0,0,1.9.42,3.55,3.55,0,0,0,3.12-1.8c1.73-2.77,6.76-14.17,7-14.66l.11-.23-37.19-15Zm36.71,15.33c-.74,1.68-5.26,11.83-6.84,14.35a3.33,3.33,0,0,1-4.38,1.2c-.31-.13-30.82-13-33.45-14.06a1.68,1.68,0,0,1-1.13-1.07,2.77,2.77,0,0,1,.75-2l8.53-13.14Z" transform="translate(-1199.47 -152.58)"/><path d="M1275.62,279.7c-2.46,1.57-5.85,1.41-10.06-.48-4.06-1.81-6.56-4.37-7.44-7.6-1.61-5.87,2.72-12.08,2.76-12.14l-.41-.29a20,20,0,0,0-1.74,3.19c-.42.68-5.08,8.44-3.08,15.19,1,3.36,3.47,5.94,7.33,7.68a15.12,15.12,0,0,0,6.13,1.5,8.78,8.78,0,0,0,4.38-1.12c5.08-2.9,6.11-10.29,6.21-11a17,17,0,0,0,.72-4.28h-.5C1279.92,270.37,1279.76,277.07,1275.62,279.7Zm3-2.64c-.71,2.56-2.25,6.33-5.42,8.13-2.68,1.53-6.06,1.4-10-.4-3.73-1.67-6.1-4.15-7.06-7.36-1.26-4.26.23-9,1.54-11.92a12.53,12.53,0,0,0,0,6.24c.93,3.38,3.53,6.05,7.72,7.93a15.89,15.89,0,0,0,6.36,1.59,7.56,7.56,0,0,0,4.18-1.15A8.26,8.26,0,0,0,1278.66,277.06Z" transform="translate(-1199.47 -152.58)"/><path d="M1233.82,215.32a11.21,11.21,0,0,0-8.32,1.55l.28.41a11,11,0,0,1,7.93-1.47c2.91.71,5.38,2.93,7.34,6.58l3.14,3,.34-.37-3.06-2.86C1239.45,218.35,1236.87,216.07,1233.82,215.32Z" transform="translate(-1199.47 -152.58)"/><rect x="1243.9" y="263.21" width="0.5" height="20.06" transform="translate(-713.94 1143.92) rotate(-65.83)"/><path d="M1228.56,208.86a4.35,4.35,0,0,0,1.8.35c8.63,0,29.85-17.51,32-19.34.88.61,5.13,3.25,9.74,1.72,4-1.34,7.13-5.48,9.18-12.32l-.48-.14c-2,6.67-5,10.7-8.85,12-4.83,1.61-9.41-1.73-9.46-1.76l-.16-.12-.15.13c-.26.22-26.59,22.21-33.45,19-7.1-3.29-3.58-13.51-1.25-20.28,2.61-7.56,20.11-26.75,20.29-26.94l-.37-.34c-.73.79-17.75,19.45-20.39,27.12C1224.66,194.9,1221.05,205.38,1228.56,208.86Z" transform="translate(-1199.47 -152.58)"/><rect x="1282.6" y="186.41" width="0.5" height="23.48" transform="translate(-660.46 1109.36) rotate(-63.82)"/><path d="M1315.31,196.09l-.47-.18c0,.08-2.91,7.5-8.72,9.54-2.91,1-6.1.53-9.46-1.45-2.89-1.72-4.48-3.91-4.72-6.52-.62-6.74,7.86-14.23,8-14.3l-.33-.38c-.36.31-8.76,7.73-8.12,14.72.26,2.79,1.93,5.11,5,6.91a13.12,13.12,0,0,0,6.66,2,9.6,9.6,0,0,0,3.22-.55C1312.32,203.81,1315.19,196.4,1315.31,196.09Z" transform="translate(-1199.47 -152.58)"/><polygon points="123.65 21.24 89.59 8.2 89.41 8.66 123.47 21.71 123.65 21.24"/><rect x="1292" y="165.29" width="0.5" height="20.14" transform="translate(-534.96 1165.85) rotate(-68.95)"/></svg>