<svg id="Layer_2" data-name="Layer 2" xmlns="http://www.w3.org/2000/svg" viewBox="0 0 143.84 185.2"><path d="M149.05,173.54V339.88l.5,0V173.84a10.92,10.92,0,0,0,5.09,1.19l.48,0v2.91a8.68,8.68,0,0,0-2.87,9.71,8.49,8.49,0,0,0,2.87,4.14V303.87h10.4l11.12,18.35.43-.26-11-18.09h26.6a10,10,0,0,0,6.43,2.3,11.51,11.51,0,0,0,4.5-.9l-.21-.45c-.06,0-5.23,2.41-9.9-.95h10.94l4.45,6.9.42-.27-4.27-6.63h1.85c-.32.66-.48,1.05-.49,1.08l.47.18s.2-.5.57-1.26h4.71c-1.94,2.55-2.74,4.76-2.38,6.59.61,3,4.15,3.79,4.3,3.83l.1-.49s-3.37-.75-3.91-3.44c-.28-1.42.18-3.5,2.53-6.49h9c-4,3.76-6.68,7.75-6.34,10.08.26,1.76,2.05,2.71,5.08,2.71h.56c7-.26,19.4-5.45,23.48-12.78H260.7l13,23.37.43-.24-12.86-23.13h22.46v39.69l.5,0V303.87h6.07V164.93h-6.07v-6.57H149.05v5.41a6.26,6.26,0,0,0-2.5,6.16A5.22,5.22,0,0,0,149.05,173.54Zm6.07,8.37a6.55,6.55,0,0,0,0,4.12l0,.05v5a7.9,7.9,0,0,1-2.39-3.65,8.18,8.18,0,0,1,2.39-8.89Zm129.11-16.48h5.57V303.37h-5.57ZM221.12,316.15c-1.78.07-4.81-.14-5.12-2.27s2.53-6.26,6.61-10h21.45C240,310.91,228,315.9,221.12,316.15Zm23.2-12.78H223.16c4.25-3.77,9.65-7.18,14.16-8.11a12.12,12.12,0,0,1,2.29-.25c3,0,5,1.56,5.82,4.66A9.54,9.54,0,0,1,244.32,303.37Zm39.41,0H261l-7.4-13.3,11.64-6.78,1.41,1.6,12.81-6.15-.22-.45-12.46,6-1.43-1.62-12.42,7.24,7.5,13.48H244.87a9.91,9.91,0,0,0,1.06-3.71v-.08c-1.09-4.09-4.1-5.75-8.71-4.8-4.83,1-10.5,4.61-14.84,8.59h-9.16c2.46-3,6.72-6.78,13.82-11.65,8-3.85,13.54-4.59,16.62-2.19,3.7,2.9,2.36,9.52,2.35,9.59l.49.1c.06-.28,1.41-7-2.54-10.08-3.23-2.53-9-1.81-17.18,2.15q-10.08,6.93-14.22,12.08h-4.85c2.77-5.43,12.75-21.45,33.12-19.21l0-.49c-20.95-2.33-31.07,14.4-33.73,19.7h-2.42l-3.59-5.58c4.27-25.59,32.46-23.32,34.54-23.11l9.22,15.05.43-.26L236,274.31l-.06-.1-.12,0c-.31,0-30.79-3.41-35.23,23.61l0,.1,3.53,5.47H192.87a11.91,11.91,0,0,1-1.1-1.05c-4.63-5.14-8-9.1-8.67-9.88l6-2.9-.22-.45-14.64,7.13-1.9-1.6-7-20.29a9.93,9.93,0,0,1,1.09-1,2,2,0,0,0,1.35.84,1,1,0,0,0,.55-.17l.07-.07a4.11,4.11,0,0,0,.48-2.12,10.62,10.62,0,0,1,3.87-1l0-.5a11.06,11.06,0,0,0-3.85.92c-.18-3.61-2.38-8.93-4.16-10.43-.83-.7-1.39-.41-1.65-.18-1.54,1.39,1,9.44,3.05,12.28a9,9,0,0,0-1.25,1.22l-.08.1,7.15,20.63,0,.07,2.26,1.89,8.51-4.14c.42.49,3.92,4.59,8.77,10,.24.26.48.49.73.72H165.8l-.62-1-.06-.1-3.79-.47-2.59-4.44-.43.25,2.71,4.65,3.8.48.39.65h-9.59V192.16a17.66,17.66,0,0,0,10.17,3,19.29,19.29,0,0,0,4.77-.58c5.7-1.48,8.44-5.36,7.31-10.42-3.16-8.5-11.94-10.72-18.59-8.5a13,13,0,0,0-3.66,1.9V175c.18,0,.37,0,.56,0,3.45-.43,7.33-2.58,6.88-7.24a8.23,8.23,0,0,0-1-2.26h54l-4.68,36.22.5.07,4.69-36.29h67.21ZM166.41,272.6c-2.15-3-4.22-10.6-3.1-11.61.09-.08.36-.34,1,.19,1.67,1.41,3.87,6.87,4,10.28A11.4,11.4,0,0,0,166.41,272.6Zm1.87-.57a3.54,3.54,0,0,1-.36,1.55c-.38.2-.83-.16-1.19-.58A11.28,11.28,0,0,1,168.28,272Zm-3.48-80.61a13.65,13.65,0,0,0,3.4-.42c4.09-1.06,6.06-3.85,5.25-7.5-2.26-6.08-8.54-7.67-13.3-6.08a8.29,8.29,0,0,0-4.53,3.42v-2.7a12.39,12.39,0,0,1,3.82-2,15.21,15.21,0,0,1,4.85-.78,13.53,13.53,0,0,1,13.1,8.94c1.06,4.73-1.55,8.39-7,9.79-5,1.3-11.15.36-14.81-2.52v-4.3C157.19,190,161,191.42,164.8,191.42ZM155.62,186v-4a7.34,7.34,0,0,1,4.69-4.14,10.84,10.84,0,0,1,3.42-.55,9.55,9.55,0,0,1,9.24,6.3c1.06,4.79-3.07,6.4-4.9,6.87C163.34,191.74,156.91,190,155.62,186Zm0-11.51v-9h5.81a7.73,7.73,0,0,1,1.14,2.36c.41,4.25-3.22,6.24-6.46,6.65Zm-6.07-15.62H283.73v6.07H216.58l.31-2.37-.5-.07-.31,2.44h-54.4c-2.16-2.8-5.85-3.52-8.94-2.84a9.84,9.84,0,0,0-3.19,1.32Zm0,5.17a8.86,8.86,0,0,1,3.29-1.45,10,10,0,0,1,2.12-.23,7.92,7.92,0,0,1,6.06,2.58h-5.9v9.58a10.24,10.24,0,0,1-5.57-1.24Zm-.5.4V173a4.71,4.71,0,0,1-2-3.1A5.72,5.72,0,0,1,149.05,164.43Z" transform="translate(-146.46 -158.36)"/><path d="M263.56,204.3c-6.13-1.8-15.27-.43-18.45,2.76a3.27,3.27,0,0,0-1,3.34c1.07,5.53,8.27,9,14.52,9,.35,0,.71,0,1,0,6-.39,9.72-4,10.05-9.64v-.06C269.14,207.18,267,205.31,263.56,204.3Zm-19,6v0a2.78,2.78,0,0,1,.9-2.85,11.5,11.5,0,0,1,5-2.54,7.54,7.54,0,0,1,3,7.76c-.59,2.05-2.29,3.18-4.78,3.21V216A9.24,9.24,0,0,1,244.57,210.3Zm4.65,6a4.85,4.85,0,0,0,4.73-3.54,8,8,0,0,0-2.83-8.06,26.87,26.87,0,0,1,6.24-.73l.94,0c-3.19,3.87-1.15,8.76.22,12a12.77,12.77,0,0,1,1,2.87A18.26,18.26,0,0,1,249.22,216.32ZM260,218.88a12.36,12.36,0,0,0-1-3c-1.44-3.44-3.41-8.14-.05-11.82a20.45,20.45,0,0,1,4.49.74c2.27.66,5.12,2.07,5.78,5C268.76,217.15,262.9,218.61,260,218.88Z" transform="translate(-146.46 -158.36)"/><path d="M175.6,266.8c.46,3.48,3.8,5.18,7,5.18a7.93,7.93,0,0,0,1-.06c3.43-.36,6.72-2.77,6.33-7.37-1.2-4.88-5.12-6.43-8.47-5.8A7.1,7.1,0,0,0,175.6,266.8Zm6-7.56a7.39,7.39,0,0,1,1.33-.12c2.76,0,5.6,1.62,6.56,5.51.37,4.51-2.94,6.48-5.89,6.8-3.28.34-7-1.18-7.47-4.69A6.54,6.54,0,0,1,181.57,259.24Z" transform="translate(-146.46 -158.36)"/><path d="M183.09,268.89a5.68,5.68,0,0,0,.59,0,4,4,0,0,0,3.86-4.51,4.43,4.43,0,0,0-8.74,1.37C179.08,267.86,181.12,268.89,183.09,268.89Zm-.62-7.58a3.87,3.87,0,0,1,4.58,3.12,3.54,3.54,0,0,1-3.42,3.94c-1.91.2-4.07-.68-4.34-2.71A3.8,3.8,0,0,1,182.47,261.31Z" transform="translate(-146.46 -158.36)"/><path d="M180.62,218c.36,2.33,2.95,3.53,5.58,3.53a9.24,9.24,0,0,0,1.05-.06c2.39-.3,5.06-1.78,4.75-5-1-3.52-4.4-4.47-7.12-3.87C182.51,213.11,180.16,215,180.62,218Zm4.37-4.93a6.72,6.72,0,0,1,1.42-.16,5,5,0,0,1,5.1,3.63c.27,2.83-2,4.15-4.32,4.43-2.71.34-5.72-.71-6.08-3C180.7,215.26,182.76,213.57,185,213.08Z" transform="translate(-146.46 -158.36)"/><path d="M186.07,218.64a4.89,4.89,0,0,0,.66,0c1.24-.19,1.94-.88,1.82-1.84-.46-1.3-2.05-1.64-3.31-1.3-1.1.3-1.71,1.05-1.55,1.9S185,218.64,186.07,218.64Zm-.7-2.71a3.08,3.08,0,0,1,.8-.1,1.91,1.91,0,0,1,1.9,1c.11.93-1.06,1.18-1.42,1.24-1.06.16-2.34-.16-2.47-.84S184.71,216.11,185.37,215.93Z" transform="translate(-146.46 -158.36)"/><path d="M234.74,226.2c.1.15,9.79,14.45,21.51,14.6h.18c5.75,0,11-3.38,15.73-10.05L276,209.93a23.12,23.12,0,0,0,.55-3v-.06l0-.06c-6.42-15.25-18-17.66-26.77-14.83-8.39,2.72-13.82,9.8-12.35,16.12,1.73,7.48,12.45,14.05,22.54,14.05.43,0,.85,0,1.28,0,6.51-.38,11.27-3.57,13.69-9l-3.15,17.42c-4.58,6.5-9.73,9.79-15.29,9.79h-.17c-11-.14-20.3-13.21-21.06-14.3l1.64-19.47-.5,0-1.65,19.64Zm26.41-4.62c-10.22.6-21.55-6.05-23.31-13.64-1.38-6,4-12.93,12-15.52a20.14,20.14,0,0,1,6.24-1c7.22,0,15,4,19.88,15.47l-.57,3.17C273,219.42,265.63,221.32,261.15,221.58Z" transform="translate(-146.46 -158.36)"/><path d="M235.35,228.75c0,.07-2.46,6.6.81,12.4,2.4,4.23,7.16,7,14.15,8.27a28.77,28.77,0,0,0,5.2.5c4.25,0,7.71-1.13,10.34-3.39,5.5-4.72,5.35-12.81,5.35-12.89h-.5c0,.08.14,7.94-5.18,12.5-3.51,3-8.6,4-15.12,2.78-6.84-1.23-11.48-3.93-13.8-8-3.16-5.59-.81-11.92-.79-12Z" transform="translate(-146.46 -158.36)"/><path d="M283.1,267.9l-4.22,2a7.82,7.82,0,0,0,.15-6.2c0-1.29-1.21-2.66-3.08-3.6s-4.72-1.47-6.73,0c-1.35,1-2.76,3.33-1.8,8.59a10.37,10.37,0,0,0,2.28,5.4l-16.48,7.61c1.77-6.3-1.28-9.91-1.39-10L215.5,220l19.55-8.59-.2-.46-20.11,8.84L251.43,272s3.17,3.76,1.15,10.12l-.17.54,17.68-8.16a3.84,3.84,0,0,0,1.47.78,3.73,3.73,0,0,0,.94.12,6.41,6.41,0,0,0,4.66-2.64,11.1,11.1,0,0,0,1.41-2.17l4.74-2.19Zm-15.19.69c-.72-4-.17-6.77,1.61-8.1a4.53,4.53,0,0,1,2.77-.84,8,8,0,0,1,3.44.85c1.7.85,2.8,2.11,2.8,3.21l0,.1a7.52,7.52,0,0,1-.35,6.35l-8,3.69A9.67,9.67,0,0,1,267.91,268.59Zm8.86,3.8c-1.59,1.9-3.48,2.78-5.08,2.36a3.22,3.22,0,0,1-1.08-.54l7.21-3.32A11.11,11.11,0,0,1,276.77,272.39Z" transform="translate(-146.46 -158.36)"/><path d="M270.18,243.29l.27.41c.09,0,8.07-5.45,10-13.16l-.48-.12C278.08,237.94,270.26,243.23,270.18,243.29Z" transform="translate(-146.46 -158.36)"/><rect x="279.48" y="241.48" width="0.5" height="13" transform="translate(-235.69 29.5) rotate(-32.3)"/><path d="M204.89,302l.49.1c.05-.22,4.92-21.78,32.45-21.78H238v-.5h-.18C209.88,279.78,204.94,301.74,204.89,302Z" transform="translate(-146.46 -158.36)"/><path d="M175.82,273.39l-.06-.05h-.09c-3.38,0-5.64.69-6.73,2a2.71,2.71,0,0,0-.61,2.18l6,16.89.47-.16-6-16.87a2.22,2.22,0,0,1,.52-1.73c.67-.84,2.31-1.84,6.26-1.85.67.54,6.44,5.53,7.32,17.2l.5,0C182.46,278.43,175.89,273.44,175.82,273.39Z" transform="translate(-146.46 -158.36)"/><polygon points="28.03 116.64 34.09 133.69 34.56 133.52 28.5 116.47 28.03 116.64"/><rect x="180.69" y="265.07" width="2.57" height="0.5" transform="translate(-235.56 -66.34) rotate(-22.96)"/><path d="M183.25,276.49l-.19.46c.06,0,6.29,2.73,6.43,11h.5C189.84,279.34,183.32,276.51,183.25,276.49Z" transform="translate(-146.46 -158.36)"/><path d="M192.23,268.77l3.12,5.45a13.6,13.6,0,0,1-3.66,1.79,2.68,2.68,0,0,1-2.1,0,4.88,4.88,0,0,1-2-2.46l-.47.16a5.22,5.22,0,0,0,2.3,2.75,2.92,2.92,0,0,0,1.27.29,3.54,3.54,0,0,0,1.21-.23,14.61,14.61,0,0,0,3.74-1.82l1.92,3.35-8.83.72-2.86-4.59-.42.26,3,4.85,9.92-.8-5.69-9.93Z" transform="translate(-146.46 -158.36)"/><path d="M235.54,253.9l-19.8-29.55L195.87,202.2c-2.07-2.76-6-1.66-6.16-1.62s-1,.22-10.81,4.38c-10.08,4.28-9.93,7.14-9.92,7.24v6.63l2.15,2.44.37-.33-2-2.3v-6.46s0-2.68,9.62-6.76,10.65-4.33,10.71-4.35,3.8-1.06,5.67,1.44l19.87,22.14L235,254c-12.56,9.81-36.9,15.86-37.14,15.92l-.1.05a2.37,2.37,0,0,0-.86,1.88q.15,1.14,1.86,1.95l.21-.46c-1-.45-1.5-1-1.57-1.55a1.79,1.79,0,0,1,.64-1.4c1.38-.35,25-6.37,37.3-16a5.53,5.53,0,0,1,1.66,6.5c-1.38,3.21-21.14,10-31.39,13.14l.15.48c1.22-.37,29.88-9.2,31.7-13.42S235.89,254.17,235.54,253.9Z" transform="translate(-146.46 -158.36)"/><path d="M166.19,259.49a2.82,2.82,0,0,0-2.58.24l.25.43A2.34,2.34,0,0,1,166,260c3.27,1.29,5.62,9.17,5.64,9.25l.48-.14C172,268.73,169.68,260.87,166.19,259.49Z" transform="translate(-146.46 -158.36)"/><path d="M165.22,258.42,164.46,232a15.58,15.58,0,0,1,9.82-4.86l-.06-.49A15.69,15.69,0,0,0,164,231.75l0,.07.76,26.62Z" transform="translate(-146.46 -158.36)"/><path d="M165.18,234.53s2.79-4.27,10.34-5.44l-.07-.49c-7.8,1.2-10.58,5.48-10.69,5.67Z" transform="translate(-146.46 -158.36)"/><path d="M181.62,246.06a11.42,11.42,0,0,0-.54,3.62l.5,0a10.76,10.76,0,0,1,1.78-6c2-2.81,1.86-9.47,1.85-9.75v-.07l-12.55-18.69-1,6.78,11.32,19.69.43-.25-11.23-19.54.82-5.34L184.71,234c0,.73.06,6.85-1.76,9.38a9.65,9.65,0,0,0-1.16,2.22c-5.19-.23-8.19-1.26-8.66-3-.84-3.05,5.94-7.49,6-7.54l-.27-.42c-.3.19-7.15,4.7-6.22,8.09C173.19,244.68,176.21,245.8,181.62,246.06Z" transform="translate(-146.46 -158.36)"/><path d="M182.19,255.52c.06-.1,1.34-2.53,0-4.34-.39-.53-.79-.76-1.18-.67-.76.17-1.07,1.5-1.11,1.65l0,.09,2.12,3.66Zm-1.8-3.35c.11-.4.38-1.1.71-1.17s.41.13.67.48a3.57,3.57,0,0,1,.17,3.37Z" transform="translate(-146.46 -158.36)"/><path d="M196.58,269.81c0-.14.33-13.78-4-23.26-4.66-10.21-5.31-19.75-1.51-22.2l-.27-.42c-4.62,3-2.83,13.73,1.33,22.83,4.28,9.37,4,22.9,4,23Z" transform="translate(-146.46 -158.36)"/><path d="M195.1,207.88l-.39.31L196.2,210a3.66,3.66,0,0,0-2,3.85c.29,1.9,2.41,2.89,4.55,2.89a6.07,6.07,0,0,0,.85-.06c2-.24,4.13-1.45,3.87-4.11a4.7,4.7,0,0,0-5.79-3.15l-.39.12-1.41-2.34-.43.26,1.36,2.24-.15.07Zm2.68,2.07a5.38,5.38,0,0,1,1.14-.12,4,4,0,0,1,4.06,2.88c.22,2.25-1.64,3.29-3.44,3.52-2.16.27-4.56-.56-4.85-2.42a3.2,3.2,0,0,1,1.82-3.39l2.84,3.55.41-.29-2.2-3.66Zm-.72.22.36.59-.44-.55Z" transform="translate(-146.46 -158.36)"/><path d="M177.64,210.94c-4.07,2.08-5.41,3.59-5.47,3.65l.38.33a19.61,19.61,0,0,1,5.32-3.54c4-2,17-6.67,17.12-6.71l-.17-.47C194.69,204.24,181.69,208.87,177.64,210.94Z" transform="translate(-146.46 -158.36)"/><polygon points="43.38 50.56 43.17 50.11 39.16 51.95 37.28 51.01 37.06 51.46 39.15 52.51 43.38 50.56"/><path d="M171.7,326.71l-7.84-14.3-.44.24,8,14.51Z" transform="translate(-146.46 -158.36)"/><path d="M156.1,304.83l-.26.43c3.28,1.95,5.08,4.4,5.35,7.27.6,6.46-6.73,13.05-6.81,13.12l.33.37c.31-.27,7.61-6.82,7-13.53C161.4,309.45,159.52,306.87,156.1,304.83Z" transform="translate(-146.46 -158.36)"/><rect x="263.84" y="295.57" width="17.11" height="0.5" transform="translate(-240.99 -27.09) rotate(-23.21)"/><polygon points="64.01 57.74 88.57 48.38 88.39 47.92 64.2 57.14 29.22 8.57 28.82 8.86 63.9 57.59 64.01 57.74"/><polygon points="91.03 117.3 91.53 117.33 92.27 103.59 91.77 103.56 91.03 117.3"/></svg>