<svg id="Layer_2" data-name="Layer 2" xmlns="http://www.w3.org/2000/svg" viewBox="0 0 151.56 181.94"><path d="M587.55,222c-4.61,1.11-8.5,5.95-7,13,1.11,5.17,5.74,7.81,10.24,7.81a11.66,11.66,0,0,0,2.05-.18c4-.75,8.22-4.12,7.08-11.22C597.77,223.4,592.15,220.91,587.55,222Zm5.21,20.16c-4.8.9-10.49-1.56-11.71-7.24-1.44-6.77,2.24-11.38,6.62-12.43a8.11,8.11,0,0,1,2-.24c3.89,0,8,2.71,9.8,9.29C600.52,238.27,596.7,241.45,592.76,242.18Z" transform="translate(-489.36 -152.58)"/><path d="M556.5,255.3c-1.76,1.54-1.64,5.44,1.62,9.29a6.23,6.23,0,0,0,4.62,2.53,3.59,3.59,0,0,0,2.28-.78c1.69-1.38,2.05-4.46-.95-8.28C560.57,254.2,557.87,254.1,556.5,255.3ZM564.71,266c-1.41,1.15-4,.94-6.21-1.68-3-3.57-3.21-7.24-1.67-8.59,1.13-1,3.61-.88,6.86,2.7C566.47,261.92,566.21,264.73,564.71,266Z" transform="translate(-489.36 -152.58)"/><path d="M556.84,210.47a3.48,3.48,0,0,0,2,.6c1.68,0,3.75-1.09,5.71-3.82,2.74-4.43,2.08-7.06.55-8-2-1.26-5.68-.06-8.48,4.14C554.52,206.48,555.15,209.3,556.84,210.47Zm.18-6.84c2.59-3.89,6.06-5.1,7.79-4,1.27.82,1.84,3.23-.7,7.34-2.62,3.66-5.39,4.19-7,3.09S555.11,206.48,557,203.63Z" transform="translate(-489.36 -152.58)"/><path d="M519.7,197a2.75,2.75,0,0,0,1.7.52c2.24,0,5.64-2,9.54-7.06,4-5.63,5.21-9.81,3.29-11.2-2.07-1.5-7.47,1.16-12.59,8.07C518,192.21,518.09,195.76,519.7,197Zm10.35-15.38c.43.32.39,1.9-2.47,5.78-3.11,3.91-5.25,4.6-5.87,4.11s-.26-2.36,1.66-4.86C526.4,182.68,529.31,181,530.05,181.6Zm-8,6,.25-.32c-1.4,2.13-1.77,3.91-.89,4.6a1.27,1.27,0,0,0,.78.24c1.23,0,3.27-1.28,5.79-4.45,2.5-3.38,3.37-5.74,2.38-6.48-.63-.47-1.79-.1-3.16.88,3.11-2.55,5.67-3.21,6.75-2.43s1.07,4.17-3.4,10.5c-4.84,6.24-8.86,7.7-10.54,6.43C518.54,195.47,518.77,192,522,187.61Z" transform="translate(-489.36 -152.58)"/><path d="M531.52,263a1.2,1.2,0,0,0,.68-.19c1.87-1.19-.28-7.38-5.35-15.39-4.9-7.34-8.55-11-10-10-1.85,1.22,1.16,9.15,6.7,17.69C526.78,260.1,529.78,263,531.52,263Zm-14.4-25.2a.54.54,0,0,1,.27-.07c1,0,3.76,2.06,9,10,6,9.44,6.54,14,5.5,14.69s-4.18-1.76-8-7.58h0C517.9,245.51,515.89,238.65,517.12,237.84Z" transform="translate(-489.36 -152.58)"/><path d="M640.42,239.45V267.5h-6.76V210.91l.06-.06-.06,0v-2.72l1.84-1.66-.33-.37-1.51,1.36V196h4.74v-.5h-4.74V159.15h-6.07v-6.57H492.41v19.6L489.36,175l3.05,2.95V312.82l.5,0V178.47l5.57,5.4V298.09H627.09v10.05l.5-.05v-10h6.07V268h7.26V239.45Zm-148-62.17L490.09,175l2.32-2.17Zm14.13-17.63h12.17l13.55,14.74-21.19,21L499,183.66V166.72ZM499,166v-6.39h6.83Zm8.1-6.89,6-5.62,5.17,5.62Zm-8.6,24-5.57-5.41V172.4l5.57-5.21Zm0-16.67-5.57,5.21V153.08h19.92l-6.49,6.07h-7.86Zm82.63,131.08c1-.15,1.95-1.62,3-4.5a5.66,5.66,0,0,1,3.59-3.84c4.5-1.42,11.07,3.07,11.59,3.43.3.42,2.77,3.73,5.77,4.91Zm46,0H608.91a7.81,7.81,0,0,0,3.44-4c1.82-3.82.72-7.33-1.36-10.23a10.14,10.14,0,0,0,2-3.84c1.15-4.06-.25-8.4-1.79-11.55h15.84Zm0-80.65-.66.68-.89-1c.18-.12.35-.26.54-.37l-.25-.43c-.22.13-.42.29-.63.43l-1.45-1.54,3.34-3.34Zm0-6.23-4,4,1.73,1.83a16.82,16.82,0,0,0-4.91,6.51c-7.46-19.63-23.53-25.45-37-22.19a32.44,32.44,0,0,0-19.37,13.65c-5,7.61-6.48,16.9-4.36,26.84,3.2,15,17.39,22.5,31.43,22.5a37.74,37.74,0,0,0,7.05-.65c13.26-2.47,27.51-13.08,24-34.84q-.66-2.44-1.47-4.65a16.9,16.9,0,0,1,5-6.8l1.31,1.39.66-.68V267.5H611a28.64,28.64,0,0,0-2.46-4l-.4.31a27.48,27.48,0,0,1,2.27,3.7H555c-.75-3.11-10-43.12,0-71.5h72.13ZM604.42,243.8c.52-.12,1-.27,1.5-.43l.25.47-7,3.84.69,1.74a2.78,2.78,0,0,0-.52-.25c-1.82-.66-4.27.65-5.09,1.14l-1.52-4.49,5.39-1.33,7-2.64.57,1.07c-.45.15-.91.28-1.39.39Zm1.74-1.06-.8-1.51L597.92,244,592,245.46l1.9,5.62.27-.18s3-2,4.92-1.26a2.21,2.21,0,0,1,1.21,1.11l.26.67.47-.16a4.44,4.44,0,0,0-.28-.73l-1-2.63,7.09-3.86-.45-.85c5.59-2.08,8.32-6.69,10.47-11.67,1.49,16.55-9.86,24.73-20.46,26.71-13.43,2.51-29.2-3.65-32.33-18.31-3.9-18.26,7.07-30.95,19.92-34,12.32-3,27.17,3,32.57,23.13.08.5.14,1,.2,1.48C614.58,235.69,611.91,240.62,606.16,242.74Zm-22.28-37.35c-13.09,3.15-24.27,16.06-20.3,34.64,2.73,12.79,14.87,19.25,26.88,19.25a32.76,32.76,0,0,0,6-.56c11-2.05,22.81-10.65,20.78-28.16.33-.8.66-1.6,1-2.4.51-1.29,1-2.56,1.57-3.77.46,1.31.89,2.68,1.28,4.11,3.43,21.38-10.58,31.82-23.63,34.25-15.74,2.94-34.22-4.28-37.89-21.46-4.57-21.4,8.29-36.27,23.35-39.9a30.09,30.09,0,0,1,7-.84c11.58,0,23.59,6.82,29.63,23.17-.63,1.36-1.21,2.79-1.8,4.26-.21.53-.43,1.06-.64,1.6,0-.23-.06-.45-.1-.67C611.55,208.47,596.43,202.37,583.88,205.39Zm43.21-9.89H554.6l-.06.16c-10.51,29.54-.11,71.73,0,72.15l0,.19h56.09c1.54,3.1,3,7.45,1.89,11.41a9.62,9.62,0,0,1-1.88,3.56c-3.54-4.62-9.46-7.6-9.56-7.65l-.18-.09-.13.17c-.29.39-7.18,9.62-4.85,12.72,1.1,1.46,3.88,1.32,8.49-.43a16.25,16.25,0,0,0,6.2-3.92c2,2.76,3,6.07,1.25,9.64-1.21,2.55-2.73,3.93-4.5,4.08-3.85.33-7.73-5.07-7.76-5.13l-.06-.06c-.29-.21-7.16-5.07-12.07-3.53a6.13,6.13,0,0,0-3.91,4.16c-1.31,3.72-2.26,4.24-2.7,4.19-.84-.06-1.55-2-1.84-3.25.84-.66,5.26-4.33,4.64-8.62a27.5,27.5,0,0,0,6.68-9.58l0-.06v-.06c0-.17-.48-4.2-2.76-4.93-1.42-.46-3.19.47-5.25,2.77-6.11,6.82-11,3.19-11.49,2.79a4.09,4.09,0,0,0-2.63-1.88c-2-.53-4.56.08-7.58,1.8a38.73,38.73,0,0,0-8.07-2.16c-.43-.57-2.6-3.2-5.61-3.08a6.6,6.6,0,0,0-4.42,2.2c-1.11,0-1.82,0-2,0-1.81.08-5.15.15-8.19,0l6.91-13.92-.45-.22-.17.35a16.71,16.71,0,0,0,.36-4.9c.58,1,1.17,1.54,1.73,1.54l.14,0c1.43-.23,1.81-3.84,1-9.21-1-6.22-2.59-11.3-4.06-13.25l1.13.64,1.62-4.32-2.35-2.24c-.3-1-4-12.81-11.72-16.67a12.09,12.09,0,0,0-10.09-.26c-14.58,5.65-9.08,25.36-8.61,26.92l-1.51,3.12,5.87,3.84c.52,2.6,2.61,7,5.7,11.82,2.59,4,5,6.37,6.35,6.37a1,1,0,0,0,.51-.14c1.46-.93-.27-5.86-4.31-12.27-2.3-3.45-6.37-9.08-7.94-8.06a1,1,0,0,0-.36.57l-3.79-12.94c.16-1,2.53-14.42,9.64-16.45,4-1.15,8.87,1.53,14.39,8l4.55,11.3a.79.79,0,0,0-.4,0c-.91.13-1.19,1.88-1.18,4.11-1.16-3-2.39-4.78-3.44-4.78h-.13c-1.73.25-2,5.41-.77,14.15,1.51,9.09,3.93,15.05,6.08,15.05h.18a1.35,1.35,0,0,0,.74-.43L531.89,273c-2.74-.17-5.14-.54-5.79-1.27a.5.5,0,0,1-.13-.42c.49-2.7,3.72-7.5,3.75-7.54l-.41-.28c-.14.2-3.32,4.93-3.83,7.73a1,1,0,0,0,.25.84c.74.84,3.2,1.25,5.92,1.43l-1.35,2.72,0,.09,0,.1c.06.18,1.55,4.44,4.4,4.75l.33,0c1.79,0,3.66-1.59,5.57-4.72a17.11,17.11,0,0,1,2.19-2.9c3.67.09,11.35.56,17.34,2.87-.6.36-1.22.76-1.85,1.21-3.56,2.5-5.6,5.25-6.08,8.18a7.8,7.8,0,0,0,1.12,5.56l.06.06c.28.19,6.86,4.77,11.42,2.68,2.26-1,3.61-3.52,4-7.41a8.51,8.51,0,0,0-2.3-6.89,15.76,15.76,0,0,0-5.21-3.48c3.35-1.82,5.54-1.91,6.85-1.57a3.57,3.57,0,0,1,2.35,1.67l.06.08c.06,0,5.57,4.62,12.22-2.81,1.92-2.13,3.51-3,4.73-2.63,1.84.6,2.34,4,2.41,4.46a27.06,27.06,0,0,1-6.3,9.13l0-.07a3.32,3.32,0,0,0-1.74-2.18c-3.05-1.61-8.71.41-9,.49l-.1,0,0,.1c-.08.17-1.9,4.33-.26,6,.93,1,2.74.91,5.38-.14a19.39,19.39,0,0,0,5.38-3.29c.32,4.21-4.56,7.87-4.61,7.91l-.13.09,0,.16c.08.37.77,3.49,2.2,3.77H499V184.36l12.1,11.74L533,174.41l-13.57-14.76h4.23l21.72,23.08-18,18.4.35.35L546,182.74l-21.72-23.09H627.09Zm-16.74,87.85a15.63,15.63,0,0,1-6.08,3.87c-4.25,1.62-7,1.83-7.91.6-2-2.59,3.79-10.68,4.73-11.95C602.12,276.41,607.24,279.24,610.35,283.35Zm-49.65-6.68a15.25,15.25,0,0,1,5.41,3.5,8,8,0,0,1,2.17,6.5c-.36,3.7-1.61,6.05-3.7,7-4.13,1.89-10.36-2.26-10.88-2.62a7.42,7.42,0,0,1-1-5.16c.46-2.79,2.44-5.43,5.88-7.84C559.32,277.52,560,277.06,560.7,276.67Zm-8.85-2.85a71.07,71.07,0,0,0-8.55-.75,6,6,0,0,1,3.71-1.72h.15A6.75,6.75,0,0,1,551.85,273.82Zm-9.73-.26a16.71,16.71,0,0,0-2,2.65c-1.92,3.15-3.75,4.64-5.42,4.47-2.32-.26-3.72-3.7-4-4.33l1.39-2.8c3.91.22,8.15,0,8.45,0C540.67,273.55,541.21,273.54,542.12,273.56Zm-30.23-29.9L507,240.44l1.4-2.9,0-.1c-.06-.2-6.38-20.71,8.29-26.39a11.57,11.57,0,0,1,9.68.24c7.86,3.91,11.46,16.3,11.49,16.42l0,.07,2.2,2.11-1.29,3.45-1.25-.7-4.64-11.53,0-.07c-5.67-6.62-10.7-9.37-14.94-8.16-7.65,2.18-9.91,16.3-10,16.9v.06Zm29.53,3.1c1,6.08.17,8.52-.55,8.64-.43.07-1.11-.59-1.86-2.23-.09-1.11-.23-2.31-.43-3.6a68.93,68.93,0,0,0-2.67-11.39c-.2-3.79.3-5.05.71-5.11h0C537.63,233.07,540,237.53,541.42,246.76Zm-3.09,4.71a48.47,48.47,0,0,1-1.84-7.67c-.18-1.29-.32-2.42-.42-3.44a73,73,0,0,1,2,9.29C538.19,250.29,538.26,250.89,538.33,251.47ZM536,243.88a40.25,40.25,0,0,0,2.51,9.37c.34,4.62-.32,7.21-1.31,7.37-1.22.19-3.85-3.6-5.69-14.62-1.48-10.47-.48-13.47.35-13.59h.07c.84,0,2.18,2.08,3.48,5.85C535.51,240.18,535.76,242.25,536,243.88Zm-23.21-1.28a.29.29,0,0,1,.17,0c.71,0,2.85,1.6,7.07,7.95,4.72,7.49,5.24,11.08,4.46,11.57-.61.39-2.83-.91-6.17-6.07C513.17,248,512,243.12,512.79,242.6Zm70.37,42.47a19.12,19.12,0,0,1-5.48,3.41c-2.44,1-4.07,1.07-4.84.26-1.28-1.33.06-4.76.31-5.38.78-.27,5.81-1.88,8.45-.49a2.85,2.85,0,0,1,1.48,1.87C583.11,284.85,583.14,285,583.16,285.07Zm43.93-125.92H523.84l-2.1-2.23-.36.35,1.77,1.88h-4.22l-5.59-6.07H627.09Zm.5,51.77,2.37-2.37,1.3,1-.92.83.33.37,1-.89,1.31,1-5.38,5.53Zm5.57,86.67h-5.57V268h5.57Zm0-30.09h-5.57V217.15l5.57-5.73Zm0-57.09-1.12-.87,1.12-1Zm0-2.55-1.52,1.37-1.72-1.34-2.33,2.32V196h5.57Zm0-12.36h-5.57V159.65h5.57Z" transform="translate(-489.36 -152.58)"/><path d="M492.41,322.8v11.47l.43.26c0-.06.05-.11.07-.16V322.8Z" transform="translate(-489.36 -152.58)"/></svg>