<svg id="Layer_2" data-name="Layer 2" xmlns="http://www.w3.org/2000/svg" viewBox="0 0 162.33 174.27"><polygon points="80.36 83.09 23.43 77.15 23.38 77.65 80.31 83.58 80.36 83.09"/><polygon points="92.12 39 38.69 36.85 27.07 73.23 82.65 78.79 92.12 39"/><path d="M988.89,314.11v-16H995V226.31l3.47.44.06-.49-3.53-.45V159.15h-6.07v-6.57H853.71v82L847,236.89l6.75.92v8.38l-12.66-2.06-.08.5,12.74,2.06v6.25L850,251.27l-.21.46,3.9,1.76v73.3l.5.06V253.72l5.57,2.52v41.85h92.49l36.12,16.35V318l.5.17v-3.53l14.21,6.43.2-.45Zm0-154.46h5.57v66.09l-5.57-.71Zm0,65.89,5.57.71v71.34h-5.57ZM853.71,236.8l-2.48-.34,2.48-.86Zm6.07,18.89-5.57-2.52v-6.4l5.57.91Zm0-8.51-5.57-.91v-8.4l5.57.76Zm0-11-1.09.35,1.09.15v1l-5.57-.75v-1.44l5.57-1.94Zm.5,61.44V256.46l39.85,18,9.62,14.43.83-.55-8.73-13.1,2.62,1.18L913,289.2l14-2.56,24.2,10.95Zm45.39-21.14-10.56-15.84,41.07-6.11,31.7,23.64-41.65,7.62Zm19.7,9.47-11.94,2.18-7.24-10.86Zm63,28-34.91-15.8h34.91Zm0-67.12-43.61-11.34-.15,0L918.85,244l68.28,23,.31-.95L922,244l22.67-7.56,43.72,11.36v49.79h-36l-24.55-11.11,42.48-7.77-33.7-25.13-.16-.13-43.05,6.4L904,275.68l-2.62-1.19-6.66-10-.83.56,5.77,8.65-39.33-17.79v-8.16l24.46,4a14.69,14.69,0,0,0,5.37,1.08,9.1,9.1,0,0,0,4.84-1.27c4.23-2.61,30.4-13.77,30.66-13.88l.12,0,11.19-45.84-4.11,26.61,55.58,7.09Zm-128.11-9.08v-1l44.83,6,.14-1-42-5.64,4.88-1.57,44,5.56,8.09-3.46-55.73-5.76h-.11l-4,1.4v-1.42l3.67-.91,12.74-43.65L937.08,189,925.3,237.25c-2.14.91-26.45,11.29-30.61,13.86s-9.69.18-9.81.14l-24.6-4V238.7l42.56,5.8.13-1Zm0-1.7v-2.67l4.16-1.44,51.78,5.35-4.29,1.84-43.83-5.55H868Zm0-5.67V159.65h81.61l-4.47,28.9-60.9-2.78h-.2l-12.77,43.76ZM988.39,225l-55-7,9-58.3h46Zm0-65.82H942.47l.16-1-.5-.07-.17,1.08H859.78v71.3l-5.31,1.31.12.48,5.19-1.28v1.48l-5.57,1.93V153.08H988.39Z" transform="translate(-840.97 -152.58)"/><polygon points="89.09 103.67 57.64 108.79 63.32 117.12 96.42 124.13 89.09 103.67"/><rect x="957.08" y="224.83" width="1" height="54.19" transform="translate(-404.42 941.34) rotate(-72.99)"/><rect x="962.72" y="225.37" width="1" height="46.8" transform="translate(-421.56 929.23) rotate(-71.34)"/></svg>