<svg version="1.1" id="Uploaded to svgrepo.com" xmlns="http://www.w3.org/2000/svg" xmlns:xlink="http://www.w3.org/1999/xlink" x="0px" y="0px"
	 width="32px" height="32px" viewBox="0 0 32 32" style="enable-background:new 0 0 32 32;" xml:space="preserve">
<style type="text/css">
	.afiado_een{fill:#0B1719;}
</style>
<path class="afiado_een" d="M20,8h-4V4h4V8z M28,16v-4h-4v4H28z M28,24v-4h-4v4H28z M8,4v4h4V4H8z M20,16h4v4h-4v8H4V12h8V8h4v4h4
	V16z M16,16H8v8h8V16z M28,4h-4v4h4V4z M20,8v4h4V8H20z"/>
</svg>