<?xml version="1.0" encoding="utf-8"?>
<!-- Generator: Adobe Illustrator 24.1.2, SVG Export Plug-In . SVG Version: 6.00 Build 0)  -->
<svg version="1.1" id="mdi-crystal-ball" xmlns="http://www.w3.org/2000/svg" xmlns:xlink="http://www.w3.org/1999/xlink" x="0px"
	 y="0px" viewBox="0 0 24 24" style="enable-background:new 0 0 24 24;" xml:space="preserve">
<path d="M9.1,9.9l1.1-0.4c0.4-0.2,0.7-0.5,0.9-0.9l0.4-1.1l0.4,1.1c0.2,0.4,0.5,0.7,0.9,0.9l1.1,0.4l-1.1,0.4
	c-0.4,0.2-0.7,0.5-0.9,0.9l-0.4,1.1l-0.4-1.1c-0.2-0.4-0.5-0.7-0.9-0.9L9.1,9.9 M16.5,2.5l0.8,2.1c0.2,0.5,0.6,0.9,1.1,1.1l2.1,0.8
	l-2.1,0.8c-0.5,0.2-0.9,0.6-1.1,1.1l-0.8,2.1l-0.8-2.1c-0.2-0.5-0.6-0.9-1.1-1.1l-2.1-0.8l2.1-0.8c0.5-0.2,0.9-0.6,1.1-1.1L16.5,2.5
	 M6,19h1v-1c0-0.6,0.4-1,1-1h0.3c-2.3-1.3-3.8-3.7-3.8-6.5C4.5,6.4,7.9,3,12,3c1.1,0,2.1,0.2,3,0.6c0,0.9-0.7,1.4-1.8,1.5
	C12.8,5,12.4,5,12,5c-3,0-5.5,2.5-5.5,5.5S9,16,12,16c2.9,0,5.3-2.3,5.5-5.1c0.4-1.9,0.8-2.7,1.6-2.7c0.3,0.7,0.4,1.5,0.4,2.4
	c0,2.8-1.5,5.2-3.8,6.5H16c0.6,0,1,0.4,1,1v1h1c1.1,0,2,0.9,2,2v1H4v-1C4,19.9,4.9,19,6,19z"/>
</svg>
