<?xml version="1.0" encoding="utf-8"?>
<!-- Generator: Adobe Illustrator 24.1.2, SVG Export Plug-In . SVG Version: 6.00 Build 0)  -->
<svg version="1.1" id="Layer_1" xmlns="http://www.w3.org/2000/svg" xmlns:xlink="http://www.w3.org/1999/xlink" x="0px" y="0px"
	 viewBox="0 0 48 48" style="enable-background:new 0 0 48 48;" xml:space="preserve">
<style type="text/css">
	.st0{display:none;}
	.st1{display:inline;}
</style>
<g class="st0">
	<path class="st1" d="M110.73-80.89c0.77,0.13,1.55,0.23,2.31,0.41c6.06,1.43,10.62,6.46,11.3,12.64c0.62,5.63-1.4,10.22-5.86,13.7
		c-0.52,0.41-0.81,0.86-0.77,1.53c0.03,0.45,0.01,0.9,0.01,1.38c-5.38,0-10.75,0-16.17,0c0-0.49-0.01-0.99,0-1.49
		c0.02-0.57-0.2-0.99-0.66-1.33c-3.41-2.55-5.44-5.95-5.97-10.17c-0.96-7.67,4.09-14.71,11.58-16.33c0.67-0.14,1.35-0.23,2.03-0.34
		C109.28-80.89,110-80.89,110.73-80.89z M109.72-74.15c-1.38,0.01-2.62,0.33-3.79,0.92c-2.93,1.48-5.07,3.81-6.87,6.49
		c-0.32,0.47-0.27,1,0.05,1.47c1.49,2.21,3.24,4.17,5.48,5.64c2.87,1.89,5.87,2.29,8.99,0.65c2.82-1.48,4.9-3.77,6.64-6.38
		c0.32-0.47,0.27-1-0.05-1.47c-1.43-2.13-3.12-4.02-5.24-5.48C113.35-73.4,111.62-74.12,109.72-74.15z"/>
	<path class="st1" d="M108.88-37.69c-0.51-0.14-1.04-0.23-1.53-0.42c-2.31-0.89-3.73-2.56-4.29-4.97c-0.04-0.18-0.17-0.38-0.32-0.49
		c-0.76-0.57-1.18-1.3-1.18-2.26c-0.01-0.87,0-1.74,0-2.64c5.39,0,10.75,0,16.1,0c0,1.07,0.06,2.15-0.02,3.22
		c-0.05,0.73-0.54,1.27-1.13,1.7c-0.13,0.09-0.25,0.27-0.28,0.42c-0.59,2.84-2.74,4.9-5.63,5.36c-0.07,0.01-0.13,0.05-0.19,0.07
		C109.89-37.69,109.39-37.69,108.88-37.69z"/>
	<path class="st1" d="M131.65-65.71c-0.35,0.77-0.96,1.05-1.8,1.01c-0.74-0.04-1.49,0-2.23-0.01c-0.71-0.02-1.25-0.5-1.35-1.16
		c-0.09-0.63,0.28-1.25,0.89-1.46c0.18-0.06,0.38-0.07,0.58-0.08c0.73-0.01,1.46,0.03,2.19-0.01c0.84-0.05,1.41,0.26,1.72,1.04
		C131.65-66.16,131.65-65.93,131.65-65.71z"/>
	<path class="st1" d="M124.82-73.62c-0.68-0.01-1.18-0.36-1.36-0.89c-0.19-0.55-0.05-1.18,0.44-1.5c0.86-0.55,1.74-1.08,2.63-1.56
		c0.6-0.32,1.33-0.05,1.68,0.53c0.36,0.59,0.24,1.38-0.34,1.76c-0.86,0.55-1.75,1.05-2.64,1.55
		C125.09-73.64,124.9-73.64,124.82-73.62z"/>
	<path class="st1" d="M94.51-73.58c-0.23-0.08-0.48-0.14-0.7-0.26c-0.75-0.43-1.5-0.87-2.24-1.32c-0.71-0.43-0.92-1.22-0.52-1.88
		c0.38-0.64,1.18-0.84,1.87-0.45c0.79,0.45,1.58,0.91,2.35,1.39c0.55,0.34,0.75,0.95,0.56,1.54C95.65-73.98,95.14-73.61,94.51-73.58
		z"/>
	<path class="st1" d="M124.72-58.54c0.23,0.08,0.49,0.13,0.7,0.25c0.76,0.43,1.5,0.87,2.25,1.32c0.71,0.43,0.94,1.21,0.55,1.88
		c-0.39,0.67-1.2,0.86-1.93,0.44c-0.76-0.44-1.53-0.88-2.28-1.35c-0.55-0.34-0.77-0.95-0.59-1.53
		C123.59-58.11,124.1-58.49,124.72-58.54z"/>
	<path class="st1" d="M95.92-57.01c-0.01,0.34-0.2,0.74-0.62,0.99c-0.8,0.49-1.6,0.97-2.42,1.43c-0.67,0.37-1.46,0.13-1.82-0.51
		c-0.36-0.63-0.18-1.41,0.46-1.8c0.8-0.5,1.6-0.98,2.42-1.43C94.85-58.82,95.92-58.16,95.92-57.01z"/>
	<path class="st1" d="M90.35-67.41c0.45,0,0.9-0.01,1.35,0c0.72,0.02,1.29,0.57,1.33,1.26c0.04,0.7-0.45,1.33-1.18,1.4
		c-0.6,0.06-1.2,0.02-1.81,0.03c-0.34,0-0.67,0.01-1.01,0c-0.82-0.03-1.41-0.62-1.39-1.38c0.02-0.75,0.6-1.3,1.41-1.31
		C89.48-67.41,89.91-67.41,90.35-67.41C90.35-67.41,90.35-67.41,90.35-67.41z"/>
	<path class="st1" d="M109.76-71.45c1.56,0.05,2.93,0.78,4.19,1.75c1.27,0.97,2.34,2.14,3.29,3.42c0.08,0.1,0.11,0.34,0.05,0.42
		c-1.35,1.78-2.89,3.36-4.88,4.45c-1.93,1.05-3.83,1-5.73-0.08c-1.92-1.09-3.4-2.65-4.7-4.39c-0.06-0.08-0.06-0.28,0-0.36
		c1.46-1.9,3.1-3.6,5.3-4.65C108.03-71.24,108.83-71.44,109.76-71.45z M105.6-66.06c-0.01,2.21,1.79,4.05,3.99,4.06
		c2.25,0.02,4.08-1.79,4.1-4.04c0.01-2.22-1.81-4.06-4.03-4.06C107.42-70.09,105.6-68.29,105.6-66.06z"/>
	<path class="st1" d="M110.99-66.06c0.01,0.73-0.59,1.35-1.32,1.37c-0.73,0.01-1.35-0.58-1.37-1.31c-0.02-0.75,0.59-1.38,1.34-1.39
		C110.37-67.4,110.98-66.79,110.99-66.06z"/>
</g>
<g class="st0">
	<path class="st1" d="M179.26-79.95c0.87,0.16,1.76,0.26,2.62,0.49c6.05,1.58,10.41,6.68,10.93,12.9c0.45,5.38-1.54,9.75-5.79,13.07
		c-0.57,0.45-0.89,0.93-0.83,1.66c0.03,0.41,0.01,0.83,0.01,1.12c0.43,0.32,0.82,0.54,1.12,0.86c0.16,0.18,0.21,0.52,0.21,0.78
		c-0.01,0.66-0.48,1.09-1.32,1.27c0,0.81-0.01,1.63,0,2.45c0.02,1.04-0.38,1.86-1.23,2.46c-0.13,0.09-0.21,0.28-0.25,0.44
		c-0.7,2.79-2.43,4.56-5.24,5.18c-3.48,0.78-7.06-1.56-7.82-5.05c-0.07-0.32-0.19-0.53-0.46-0.73c-0.7-0.51-1.04-1.23-1.05-2.08
		c-0.01-0.88,0-1.75,0-2.51c-0.42-0.3-0.82-0.5-1.1-0.81c-0.17-0.19-0.23-0.54-0.22-0.82c0.01-0.66,0.48-1.09,1.31-1.26
		c0-0.6,0.02-1.22-0.01-1.82c-0.02-0.47-0.34-0.77-0.7-1.04c-2.91-2.18-4.79-5.05-5.61-8.59c-1.88-8.13,3.53-16.27,11.74-17.72
		c0.51-0.09,1.01-0.16,1.52-0.24C177.81-79.95,178.54-79.95,179.26-79.95z M183.53-50.53c0-0.46,0.01-0.89,0-1.32
		c-0.06-1.59,0.61-2.77,1.86-3.76c3.83-3.01,5.45-6.97,4.62-11.76c-1.25-7.23-8.59-11.55-15.6-9.3c-5.46,1.75-9.02,7.44-8.17,13.06
		c0.51,3.36,2.1,6.07,4.83,8.1c1.18,0.88,1.77,2.04,1.75,3.51c-0.01,0.48,0,0.97,0,1.47C176.4-50.53,179.93-50.53,183.53-50.53z
		 M183.5-45.18c0-0.91,0-1.77,0-2.63c-3.57,0-7.11,0-10.65,0c0,0.89,0,1.76,0,2.63C176.42-45.18,179.95-45.18,183.5-45.18z
		 M181.91-42.46c-2.51,0-4.99,0-7.48,0c0.46,1.53,2.06,2.65,3.74,2.65C179.86-39.81,181.47-40.94,181.91-42.46z"/>
	<path class="st1" d="M155.13-65.56c0.3-0.76,0.85-1.07,1.67-1.03c0.76,0.04,1.53,0,2.3,0.01c0.79,0.01,1.38,0.57,1.39,1.31
		c0.01,0.74-0.56,1.34-1.35,1.36c-0.88,0.02-1.76,0.01-2.63,0c-0.68,0-1.08-0.42-1.37-0.99C155.13-65.12,155.13-65.34,155.13-65.56z
		"/>
	<path class="st1" d="M193.26-72.74c-0.69,0-1.19-0.36-1.37-0.91c-0.18-0.56-0.02-1.16,0.47-1.48c0.84-0.54,1.7-1.05,2.58-1.52
		c0.59-0.32,1.32-0.06,1.67,0.51c0.36,0.58,0.26,1.37-0.32,1.75c-0.85,0.55-1.74,1.04-2.62,1.54
		C193.53-72.76,193.34-72.75,193.26-72.74z"/>
	<path class="st1" d="M163.16-72.69c-0.24-0.09-0.5-0.15-0.73-0.28c-0.74-0.42-1.47-0.85-2.19-1.29c-0.7-0.42-0.92-1.2-0.54-1.86
		c0.38-0.65,1.18-0.85,1.89-0.44c0.77,0.44,1.54,0.89,2.29,1.36c0.55,0.34,0.75,0.93,0.57,1.52
		C164.29-73.11,163.78-72.73,163.16-72.69z"/>
	<path class="st1" d="M191.8-56.25c-0.01-1.13,1.02-1.81,1.91-1.35c0.86,0.45,1.69,0.96,2.51,1.48c0.61,0.39,0.75,1.16,0.39,1.77
		c-0.35,0.59-1.09,0.84-1.7,0.52c-0.87-0.47-1.71-0.98-2.55-1.49C191.98-55.57,191.81-55.95,191.8-56.25z"/>
	<path class="st1" d="M164.55-56.27c-0.01,0.34-0.2,0.73-0.61,0.98c-0.79,0.49-1.59,0.96-2.4,1.42c-0.66,0.37-1.45,0.13-1.81-0.5
		c-0.37-0.64-0.17-1.41,0.48-1.81c0.77-0.47,1.54-0.94,2.33-1.37C163.47-58.07,164.54-57.44,164.55-56.27z"/>
	<path class="st1" d="M198.54-66.58c0.46,0,0.92-0.01,1.38,0c0.68,0.02,1.22,0.53,1.29,1.19c0.07,0.68-0.38,1.37-1.07,1.42
		c-1.06,0.07-2.14,0.07-3.21,0c-0.69-0.05-1.13-0.74-1.07-1.42c0.07-0.66,0.61-1.17,1.29-1.19
		C197.62-66.59,198.08-66.58,198.54-66.58z"/>
	<path class="st1" d="M178.1-57.2c-1.98-0.03-3.77-0.81-5.41-1.98c-1.99-1.43-3.6-3.23-4.96-5.26c-0.32-0.48-0.37-1.01-0.04-1.49
		c1.74-2.59,3.8-4.85,6.61-6.31c2.82-1.47,5.61-1.31,8.32,0.29c2.53,1.49,4.45,3.6,6.06,6.01c0.3,0.44,0.32,0.95,0.02,1.38
		c-1.82,2.71-3.98,5.06-6.96,6.52C180.61-57.5,179.42-57.21,178.1-57.2z M178.23-70.58c-0.92,0.01-1.74,0.23-2.51,0.61
		c-2.13,1.05-3.73,2.7-5.14,4.55c-0.06,0.08-0.05,0.3,0.01,0.39c1.23,1.64,2.62,3.1,4.39,4.18c1.96,1.19,3.94,1.33,5.98,0.21
		c1.96-1.07,3.47-2.63,4.8-4.39c0.06-0.08,0.05-0.3-0.01-0.39c-1.11-1.49-2.38-2.84-3.93-3.89
		C180.72-70.05,179.53-70.56,178.23-70.58z"/>
	<path class="st1" d="M174.16-65.23c0-2.21,1.8-4.01,4.01-4.02c2.21,0,4.02,1.81,4.02,4.01c-0.01,2.22-1.8,4.01-4.01,4.02
		C175.97-61.21,174.16-63.02,174.16-65.23z M179.51-65.23c0-0.72-0.61-1.33-1.33-1.33c-0.73,0-1.33,0.59-1.34,1.32
		c-0.01,0.75,0.6,1.36,1.35,1.35C178.92-63.9,179.51-64.5,179.51-65.23z"/>
</g>
<g>
	<path d="M2.06,41.53c1.51-2.46,3.01-4.93,4.53-7.39c5.4-8.76,10.8-17.51,16.19-26.26c0.46-0.74,1.11-1.02,1.75-0.67
		c0.28,0.15,0.53,0.43,0.7,0.71c2.76,4.46,5.51,8.92,8.26,13.38c3.99,6.48,7.99,12.95,11.98,19.43c0.16,0.26,0.31,0.54,0.47,0.81
		c0,0.2,0,0.4,0,0.6c-0.29,0.75-0.85,1.01-1.64,1.01c-13.53-0.01-27.06-0.01-40.59,0c-0.79,0-1.35-0.26-1.64-1.01
		C2.06,41.92,2.06,41.72,2.06,41.53z M23.99,36.07c4.07-0.22,7.08-2.07,8.87-5.8c0.21-0.44,0.22-0.88,0.01-1.32
		c-1.78-3.7-4.72-5.75-8.82-5.77c-4.08-0.02-7.04,1.99-8.87,5.64c-0.26,0.52-0.25,1.03,0,1.55C16.99,34.02,19.96,35.84,23.99,36.07z
		"/>
	<path d="M3.51,11.9c0.22,0.09,0.39,0.13,0.54,0.21c1.89,1.02,3.78,2.05,5.67,3.08c0.51,0.28,0.59,0.57,0.32,1.09
		c-0.17,0.31-0.33,0.63-0.51,0.94c-0.23,0.39-0.54,0.5-0.94,0.29c-1.97-1.06-3.93-2.13-5.89-3.21c-0.38-0.21-0.46-0.53-0.27-0.91
		c0.18-0.37,0.37-0.74,0.6-1.08C3.14,12.14,3.35,12.03,3.51,11.9z"/>
	<path d="M45.76,13.75c-0.17,0.2-0.29,0.46-0.48,0.56c-1.94,1.08-3.9,2.14-5.85,3.19c-0.4,0.22-0.72,0.12-0.95-0.27
		c-0.2-0.34-0.4-0.69-0.57-1.05c-0.2-0.4-0.11-0.71,0.3-0.93c1.95-1.07,3.9-2.13,5.85-3.19c0.4-0.22,0.71-0.12,0.94,0.27
		C45.26,12.78,45.49,13.23,45.76,13.75z"/>
	<path d="M16.65,9.57c-0.11,0.12-0.23,0.36-0.43,0.46c-0.39,0.2-0.82,0.33-1.24,0.47c-0.37,0.13-0.66-0.03-0.8-0.37
		c-0.5-1.3-0.99-2.6-1.47-3.91c-0.15-0.4,0.01-0.71,0.39-0.87c0.39-0.16,0.8-0.31,1.2-0.44c0.35-0.12,0.65,0.01,0.78,0.34
		c0.52,1.34,1.02,2.68,1.52,4.03C16.63,9.33,16.63,9.39,16.65,9.57z"/>
	<path d="M33.29,10.63c-0.62-0.26-1.18-0.44-1.68-0.73c-0.15-0.08-0.24-0.48-0.18-0.67c0.46-1.32,0.96-2.62,1.46-3.92
		c0.15-0.4,0.45-0.53,0.86-0.4c0.39,0.13,0.78,0.27,1.16,0.43c0.39,0.16,0.53,0.47,0.39,0.87c-0.47,1.3-0.95,2.59-1.46,3.87
		C33.74,10.3,33.48,10.45,33.29,10.63z"/>
	<path d="M2.55,25.74c0-0.46,0.17-0.69,0.5-0.77c1.28-0.33,2.57-0.65,3.86-0.96c0.41-0.1,0.7,0.08,0.81,0.49
		c0.12,0.4,0.21,0.8,0.3,1.2c0.08,0.37-0.06,0.67-0.43,0.77c-1.34,0.35-2.67,0.7-4.02,0.99c-0.18,0.04-0.55-0.17-0.63-0.36
		C2.73,26.64,2.65,26.13,2.55,25.74z"/>
	<path d="M45.45,25.77c-0.1,0.38-0.2,0.87-0.37,1.33c-0.11,0.32-0.4,0.45-0.73,0.37c-1.29-0.31-2.57-0.63-3.85-0.97
		c-0.44-0.11-0.6-0.41-0.51-0.84c0.08-0.37,0.18-0.75,0.28-1.12c0.13-0.47,0.41-0.65,0.86-0.54c1.26,0.3,2.52,0.62,3.77,0.94
		C45.27,25.04,45.47,25.27,45.45,25.77z"/>
	<path d="M24.93,25.77c1.84,0.11,3.82,1.26,5.2,3.46c0.16,0.26,0.16,0.46,0,0.73c-2.72,4.65-9.54,4.65-12.25,0
		c-0.16-0.27-0.16-0.46,0-0.73C19.17,27.03,21.7,25.62,24.93,25.77z M24,31.52c1.07,0,1.94-0.86,1.94-1.93
		c0-1.06-0.87-1.93-1.94-1.93c-1.07,0-1.94,0.87-1.93,1.93C22.06,30.66,22.93,31.52,24,31.52z"/>
</g>
</svg>
