<?xml version="1.0" encoding="utf-8"?>
<!-- Generator: Adobe Illustrator 24.1.2, SVG Export Plug-In . SVG Version: 6.00 Build 0)  -->
<svg version="1.1" id="Capa_1" xmlns="http://www.w3.org/2000/svg" xmlns:xlink="http://www.w3.org/1999/xlink" x="0px" y="0px"
	 viewBox="0 0 481 481" style="enable-background:new 0 0 481 481;" xml:space="preserve">
<path d="M256,290h-28c-10.2,0-18.5-8.3-18.5-18.5s8.3-18.5,18.5-18.5h49.3c6.7,0,12.2-5.5,12.2-12.2s-5.5-12.2-12.2-12.2h-23.1v-17
	c0-6.7-5.5-12.2-12.2-12.2s-12.2,5.5-12.2,12.2v17h-1.7c-23.7,0-42.9,19.3-42.9,42.9s19.3,42.9,42.9,42.9h28
	c10.2,0,18.5,8.3,18.5,18.5s-8.3,18.5-18.5,18.5h-50.3c-6.7,0-12.2,5.5-12.2,12.2s5.5,12.2,12.2,12.2h24.1v17.4
	c0,6.7,5.5,12.2,12.2,12.2s12.2-5.5,12.2-12.2v-17.4h2c0.1,0,0.2,0,0.3,0c23.4-0.3,42.3-19.5,42.3-42.9
	C298.9,309.2,279.6,290,256,290z"/>
<path d="M425,270.6L425,270.6c-12.7-29.2-30-57-51.6-82.8c-23.4-28.1-46.6-47.9-60.8-58.8L359,42.7c4-7.6,2.6-16.9-3.6-22.7
	C341.2,6,325.9-0.8,308.7-0.8C293-0.8,279.2,5,268.2,9.7l-0.9,0.4c-7.7,3.2-15,6.2-19.9,6.2c-1.1,0-2-0.1-2.8-0.5l-0.1-0.1
	C220.4,7,201.9,1.5,183.7,1.5c-23.9,0-44.1,9.4-63.9,29.7c-6.2,6.4-7.2,16.5-2.2,23.9l49.6,74.9c-14.1,11-36.7,30.5-59.5,57.7
	C86,213.8,68.6,241.7,56,270.6C40.3,307,32.3,345,32.3,383.6c0,54,43.9,97.9,97.9,97.9h220.5c54,0,97.9-43.9,97.9-97.9
	C448.7,345,440.7,307,425,270.6z M199.2,153.7h82.4c8.7,6.2,35.9,26.8,62.6,59.1c43.8,52.8,66,110.2,66,170.8
	c0.1,15.8-6,30.8-17.3,42c-11.3,11.3-26.2,17.6-42.2,17.6H130.2c-32.9,0-59.6-26.8-59.6-59.6c0-60.4,22.2-117.9,66-170.8
	C160.9,183.5,185.5,163.6,199.2,153.7z M276.2,115.4h-72.7l-44.8-67.6c8-5.6,15.7-8.1,24.9-8.1c12.8,0,27.7,4.5,47.5,11.9
	c5.1,1.8,10.5,2.8,16.1,2.8c13.1,0,25.6-5.2,35.6-9.4c9.3-3.9,18.1-7.6,25.8-7.6c2.3,0,5.1,0.3,8.7,1.8L276.2,115.4z"/>
</svg>
