<svg xmlns="http://www.w3.org/2000/svg" viewBox="0 0 467.34 171.17"><g id="Capa_4" data-name="Capa 4"><path d="M133.18,18.44c-6.91-5.08-16.07-7.65-27.22-7.65a85.5,85.5,0,0,0-24.09,3.83A139.41,139.41,0,0,0,56.64,25,132.41,132.41,0,0,0,34,39.92,83.26,83.26,0,0,0,17.4,58c-4.29,6.51-6.47,13.12-6.47,19.65A32.55,32.55,0,0,0,14,91.52a65.61,65.61,0,0,0,7.3,12.07c2.78,3.64,5.55,7,8.22,10,2.15,2.46,3.95,4.64,5.35,6.5,1.63,2.16,1.76,3.16,1.76,3.42a17,17,0,0,1-.53,3.06l0,.14c-.31,2-.69,4.58-1.12,7.63a73.7,73.7,0,0,0-.66,10.23c0,8.13,1.51,13.28,4.64,15.74a5.88,5.88,0,0,0,3.68,1.24c1.75,0,4.14-.81,5.61-4.69a26.38,26.38,0,0,0,1.42-9.25,45,45,0,0,0-1.54-12.38,81,81,0,0,0-2.7-8,11.85,11.85,0,0,1-.67-1.91c.47-7.69,3.49-18.16,9-31.13,5.58-13.21,10.8-24.89,15.51-34.7C75,47.9,75,47.09,75,46.38A3.34,3.34,0,0,0,74,43.91,2.82,2.82,0,0,0,72,43c-1.41,0-2.75,1-6.17,6.11-2.32,3.5-4.85,7.76-7.52,12.67s-5,9.76-7,14.41c-3.29,8-6,15.35-8,21.88S39.91,109.73,39,113.55c-.17.69-.31,1.29-.44,1.8-1.8-2.46-3.82-5-6-7.64-2.62-3.16-5.17-6.46-7.58-9.84a61.31,61.31,0,0,1-6-10.31,24.66,24.66,0,0,1-2.34-10.29c0-5.61,2.62-11.89,7.79-18.68A95.05,95.05,0,0,1,45.61,38.77,130.3,130.3,0,0,1,75.29,23.39a94.5,94.5,0,0,1,32.89-6,50.1,50.1,0,0,1,15.42,2.18A21.89,21.89,0,0,1,133.75,26a15.75,15.75,0,0,1,3.56,10.7,37.71,37.71,0,0,1-4.73,18,76.74,76.74,0,0,1-13,17.28A140.31,140.31,0,0,1,101,87.69C91.32,94.42,83.54,98.88,77.83,101s-9.8,3.24-12.19,3.46h-.13a15.43,15.43,0,0,0-3.65.91,3.54,3.54,0,0,0-2.13,3.41v.41a3.84,3.84,0,0,0,.33,1.49,4.27,4.27,0,0,0,1.17,1.53,5.89,5.89,0,0,0,1.83,1.07,7.62,7.62,0,0,0,2.76.43c3.28,0,8-1.4,14.29-4.28a145.7,145.7,0,0,0,19.94-11.33A159.71,159.71,0,0,0,120.73,81.6a97.69,97.69,0,0,0,16.48-20,42.1,42.1,0,0,0,6.68-22.11A24.9,24.9,0,0,0,133.18,18.44Zm-89.49,128c0,3.86-.58,5.8-1.06,6.75l-.17.33,0-.1a30.43,30.43,0,0,1-.59-6.63,65,65,0,0,1,.46-7.89h0c.07-.6.14-1.17.21-1.72.1.4.2.83.29,1.26A42.51,42.51,0,0,1,43.69,146.43Z"/><path d="M448.53,114.8c-1.92,2.08-3.65,3.22-5.16,3.37-.58.06-1.43-.07-2.17-1.8a25.12,25.12,0,0,1-1.47-6.89,42.63,42.63,0,0,1,0-8,40.47,40.47,0,0,0,.11-7.79,7.74,7.74,0,0,0-1-3.29A2.84,2.84,0,0,0,436,89a10.31,10.31,0,0,0-4.23,1.94c-1.65,1.11-3.43,2.44-5.28,3.93s-3.76,2.71-5.48,3.91a8.69,8.69,0,0,1-3.79,1.8l-.12,0c-.09,0-.21,0-.25,0a1.1,1.1,0,0,1-.19-.63,18.2,18.2,0,0,1,.87-5.73c.74-2.77,1.51-5.54,2.29-8.22.7-2.22,1.29-4.21,1.74-5.92a11.47,11.47,0,0,0,.62-3.75,3.84,3.84,0,0,0-.25-.93,2.55,2.55,0,0,0-.79-1.13,2.12,2.12,0,0,0-1.59-.39c-.91.09-2.37,1-6.91,6.86-3.26,4.2-6.82,8.94-10.58,14.08-3,4.17-5.81,7.89-8.22,11.06a48.93,48.93,0,0,1-3.48,4.23c-.5-1.34-1.25-5.67,0-12.12l.43-2c.26-1.27.81-3.94,1.16-5.16s.69-2.48,1-3.57c1.34-4.76,2.08-7.38,2.08-8.52v-.31a2.16,2.16,0,0,0-.64-1.66,1.84,1.84,0,0,0-.59-.65l-.68-.45h-.27c-.57,0-1.34.26-3.83,3.39-1.64,2.06-3.59,4.64-5.78,7.65-3.55,4.79-7.2,9.46-10.84,13.87-4.58,5.53-6.57,6.36-7.35,6.36-.41,0-.43-1.24-.43-1.48A29.07,29.07,0,0,1,366,98c.9-3.15,1.76-6,2.54-8.51,1.19-3.44,1.36-4.29,1.36-4.69a2,2,0,0,0-1-1.85,2.6,2.6,0,0,0-1.33-.44c-1.42,0-2.72,1.22-4.1,3.85a36.65,36.65,0,0,0-2.44,5.91,61,61,0,0,0-4.69,4.38c-3.16,3.08-6.73,6.25-10.62,9.4s-6.95,4.57-9.49,4.57a5.44,5.44,0,0,1-3.65-1.16c-.87-.74-1.31-2.18-1.31-4.27a24.72,24.72,0,0,1,1.13-7.26c.76-2.48,1.54-4.83,2.31-7a19.75,19.75,0,0,0,1.74-6.31,3.37,3.37,0,0,0-.71-2.17,3,3,0,0,0-1.8-1.11l-.17,0c-1.6,0-3.06,1.46-4.49,4.46-.51,1.08-1,2.27-1.49,3.64l-.26.33c-.9,1.12-2,2.61-3.35,4.41-2,2.73-4.26,5.72-6.76,8.88a71.66,71.66,0,0,1-7.61,8.24c-2.42,2.19-4.53,3.3-6.27,3.3-.7,0-1.69-.25-2.35-2.41a29.87,29.87,0,0,1-.88-8.16,50.28,50.28,0,0,1,1-9.31,48.76,48.76,0,0,0,1-8.93,9,9,0,0,0-.72-3.84,3.09,3.09,0,0,0-3-1.85,11.36,11.36,0,0,0-4.95,1.74c-2,1.08-4.14,2.41-6.39,3.9s-4.52,2.68-6.63,3.88a10.25,10.25,0,0,1-4.51,1.65H276c-.25,0-.54,0-.54-1a21.76,21.76,0,0,1,1.65-6.55c1.14-3.1,2.33-6.21,3.52-9.23,1-2.46,1.93-4.69,2.63-6.61a13.24,13.24,0,0,0,1.11-4.19,5,5,0,0,0-.16-1.07,2.9,2.9,0,0,0-.73-1.32,2.27,2.27,0,0,0-1.68-.61c-1,0-2.72.84-8.49,7.07-4.16,4.48-8.71,9.53-13.52,15-3.88,4.44-7.42,8.41-10.52,11.8A45.68,45.68,0,0,1,245,98.87a28.2,28.2,0,0,1,1.23-4.08,48.75,48.75,0,0,1,4.4-8.15A8.24,8.24,0,0,0,252,82.76c0-.28.08-.57.14-.88a12.25,12.25,0,0,0,.15-3.1c0-.14,0-.25,0-.34a2.22,2.22,0,0,0-.21-.82,4.12,4.12,0,0,0-.55-.93A1.88,1.88,0,0,0,250,76c-1.53,0-3.11,1.55-5.14,5a61,61,0,0,0-3.67,7.46c-.72.36-1.56.81-2.51,1.34a143.69,143.69,0,0,1-13.49,6.54,59.59,59.59,0,0,1-16.89,4.53,13.05,13.05,0,0,1-1.84.13c-7.21-.11-8-3.59-8-6.11.34-3.45,1.66-3.45,2.1-3.45,4.89,0,8.9-1.23,11.93-3.66s4.64-5.06,4.64-7.68a6.82,6.82,0,0,0-.24-1.63,3.7,3.7,0,0,0-1.54-2.05,6.14,6.14,0,0,0-3.62-.87A18.71,18.71,0,0,0,203.35,78a27.35,27.35,0,0,0-8.25,6.57,15.36,15.36,0,0,0-2.48,3.91l-.32.11c-1.89.59-4.1,1.2-6.76,1.87a31.46,31.46,0,0,1-7.66,1A10.68,10.68,0,0,1,169,86.93c-2.39-3.05-3.6-7.4-3.6-12.92a45.51,45.51,0,0,1,.15-4.55,10.42,10.42,0,0,0,.15-1.75c-.32-2.9-1.55-3.5-2.53-3.5-1.82,0-4.26,1.8-7.69,5.66-3.19,3.59-6.67,7.91-10.34,12.84S138.06,92.39,135,96.8c-2.26,3.18-4.08,5.67-5.58,7.61l-.35.45.06-.17c.62-1.85,1.38-4,2.26-6.48,1.31-3.62,2.56-7.19,3.71-10.61s1.79-5.87,1.79-7.09v-.3a2.61,2.61,0,0,0-.66-1.71,3,3,0,0,0-1.71-1l-.47,0c-1.18,0-2.78.89-5.72,7.48a128.31,128.31,0,0,0-5.63,15.38c-1.71,5.68-2.54,9.82-2.54,12.66,0,1.88.38,3.17,1.17,3.95a2.91,2.91,0,0,0,1.1.67,3.38,3.38,0,0,0,1,.19c1.17,0,3.13-1.17,9.48-9.66,4.63-6.19,9.47-12.84,14.38-19.76,3.39-4.89,6.42-9.11,9-12.54.94-1.25,1.67-2.19,2.23-2.88a24.2,24.2,0,0,0-.25,3.57,24.59,24.59,0,0,0,1.64,8.63,16.48,16.48,0,0,0,5.59,7.42c4.3,3.25,11,3.78,19.85,1.82,2.22-.48,4.28-1,6.16-1.56a12.94,12.94,0,0,0-.07,1.39,13.25,13.25,0,0,0,1.13,5.22,10.27,10.27,0,0,0,4,4.56c1.87,1.22,4.58,1.84,8,1.84h1.33a53.63,53.63,0,0,0,16.75-4.31,110.31,110.31,0,0,0,15.19-7.7l1.65-1a27.81,27.81,0,0,0-1.72,8.5,6.2,6.2,0,0,0,1.1,3.85,3.31,3.31,0,0,0,2.6,1.55c1.38,0,4-.9,11-8.63,5.06-5.58,10-11.3,14.65-17q4.1-4.67,6.86-7.85l.25-.29c-1.05,2.23-2.22,4.92-3.49,8a26,26,0,0,0-2.19,9.73c0,5.07,3.21,5.83,5.12,5.83,2.49,0,5.47-.94,8.84-2.8a91.33,91.33,0,0,0,8.91-5.56,29.29,29.29,0,0,1,4.73-2.88c0,.17-.08.39-.13.65-.48,1.73-1,4.28-1.58,7.8a67.16,67.16,0,0,0-.86,10.82c0,4.61.5,7.84,1.51,9.87a8.89,8.89,0,0,0,3.33,4,7.92,7.92,0,0,0,3.81,1c3.13,0,6.44-1.5,9.84-4.46a68.33,68.33,0,0,0,9.24-9.88c1.41-1.83,2.71-3.62,3.88-5.36a34.21,34.21,0,0,0-.36,4.76c0,5.62,1.87,9.36,5.63,11.17a7.06,7.06,0,0,0,2.37.37h.78c2.66,0,5.84-1.22,9.42-3.62a85.61,85.61,0,0,0,10.14-8c2.39-2.17,4.5-4.22,6.32-6.1a28.74,28.74,0,0,0-.43,4.83,10.53,10.53,0,0,0,1.46,6,4.41,4.41,0,0,0,3.57,2.26c2,0,4.38-1.4,7.27-4.26a105.92,105.92,0,0,0,8.27-9.35c2.78-3.52,5.18-6.68,7.15-9.38.26-.35.49-.68.71-1-.48,1.66-1.07,3.75-1.4,5-1.21,4.44-2.62,11.38-2.62,16.31a13.55,13.55,0,0,0,.65,4.71,8.26,8.26,0,0,0,1.48,2.64,4.59,4.59,0,0,0,1.19,1,6.82,6.82,0,0,0,1.67.38c1.24-.15,3.06-1.79,3.06-1.79h0a24.61,24.61,0,0,0,5.07-6.13c.24-.37.42-.67.55-.85l.82-1.11c3.54-4.81,7.19-9.78,10.57-14.75q3-4.14,5.11-7c-.66,1.85-1.37,4-2.12,6.46a22.33,22.33,0,0,0-1.08,8.61c.34,3.3,2.16,5,5.11,4.65a17.12,17.12,0,0,0,7.56-3.19,79.81,79.81,0,0,0,7.36-5.58A28.26,28.26,0,0,1,434.26,94c0,.1,0,.22,0,.34-.27,1.53-.5,3.77-.71,6.85a57,57,0,0,0,.18,9.39c.41,4,1.13,6.73,2.2,8.4a7.82,7.82,0,0,0,3.33,3.22,6.91,6.91,0,0,0,2.7.53,6.74,6.74,0,0,0,.77,0c2.77-.27,5.57-1.87,8.32-4.72S450.56,112.6,448.53,114.8ZM212.39,81.39l.1.11c0,1-.73,1.92-2.09,2.68a21.34,21.34,0,0,1-5.17,2,27.31,27.31,0,0,1-3,.63,7,7,0,0,1,1.44-1.43A27.18,27.18,0,0,1,208,82.61,11.08,11.08,0,0,1,212,81.3C212.27,81.3,212.37,81.37,212.39,81.39Z"/><path d="M339.9,66.43l-.12-.09a3.8,3.8,0,0,0-4.54.24,5.22,5.22,0,0,0-1.92,4.17v1a4.11,4.11,0,0,0,2.08,3.63,4.84,4.84,0,0,0,2.29.6,3.81,3.81,0,0,0,3.05-1.59,5.38,5.38,0,0,0,1.19-3.45A5.68,5.68,0,0,0,339.9,66.43Z"/></g></svg>