<?xml version="1.0" encoding="utf-8"?>
<!-- Generator: Adobe Illustrator 26.3.1, SVG Export Plug-In . SVG Version: 6.00 Build 0)  -->
<svg version="1.1" id="Capa_1" xmlns="http://www.w3.org/2000/svg" xmlns:xlink="http://www.w3.org/1999/xlink" x="0px" y="0px"
	 viewBox="0 0 841.9 595.3" style="enable-background:new 0 0 841.9 595.3;" xml:space="preserve">
<style type="text/css">
	.st0{fill:none;}
	.st1{fill:#E5007E;}
	.st2{fill:#FF0000;}
	.st3{fill:#0000FF;}
	.st4{fill:#009EE2;}
	.st5{fill:#FFEC00;}
	.st6{fill:#FFFFFF;}
</style>
<g>
	<path class="st0" d="M571.5,348c1.6-4.9,2.9-10.9,4.2-18l11.4-65.9c1.2-6.9,1.7-12.5,1.4-16.8c-0.3-4.3-1.8-7.4-4.6-9.4
		c-2.7-1.9-7.4-2.9-14-3l-21.6,125.3h9.6c1.6,0,3-0.1,4.4-0.2c0.5-0.3,1-0.6,1.5-0.9C567.4,356.6,569.9,352.9,571.5,348z"/>
	<path class="st0" d="M82.3,283.5c1.5,0,2.9-0.1,4.3-0.2c3.1-1.6,5.4-4.1,7.1-7.4c1.8-3.6,3.3-8.5,4.3-14.6
		c1.1-6.2,1.5-11.3,1.2-15.2c-0.3-3.9-1.7-6.8-4.5-8.6c-2.7-1.8-7.4-2.8-13.9-2.8h-2.1l-8.4,48.8H82.3z"/>
	<path class="st0" d="M770.2,283.5c1.9,0,3.7-0.1,5.4-0.3c3.6-1.8,6.5-4.5,8.6-8.2c2.2-3.9,3.9-8.9,4.9-15c1.5-8.6,1-15.1-1.4-19.5
		c-2.4-4.3-8.1-6.5-17.1-6.5h-1.7l-8.5,49.4H770.2z"/>
	<path class="st0" d="M187,283.5c1.9,0,3.7-0.1,5.4-0.3c3.6-1.8,6.5-4.5,8.6-8.2c2.2-3.9,3.9-8.9,4.9-15c1.5-8.6,1-15.1-1.4-19.5
		c-2.4-4.3-8.1-6.5-17.1-6.5h-1.7l-8.5,49.4H187z"/>
	<path class="st0" d="M296.2,243.3c-1.5,3.8-2.7,8.2-3.5,13L279,335.6c-0.8,4.7-1.2,9-1.1,13c0.1,4,1.2,7.1,3.4,9.4
		c2.2,2.3,5.8,3.4,10.9,3.4c0.3,0,0.7,0,1,0c0.3-0.2,0.7-0.4,1-0.7c2.9-2.3,5.1-5.4,6.6-9.4c1.5-4,2.7-8.3,3.5-13L318,259
		c0.8-4.8,1.1-9.1,1-13c-0.2-3.8-1.3-6.8-3.4-9c-1.7-1.8-4.6-2.9-8.4-3.2c-1.7,0.1-3.2,0.4-4.6,0.8
		C299.7,236.8,297.6,239.7,296.2,243.3z"/>
	<path class="st1" d="M108.8,301c-3.9,1.7-8.2,2.9-12.7,3.6c-6.8,2.5-14.4,3.7-22.8,3.7h5.1c9.4,0,17.7-1.6,25.2-4.7
		c2.1-0.9,4-1.9,5.9-3C109.2,300.7,109,300.9,108.8,301z"/>
	<polygon class="st1" points="43.2,384.9 48.3,384.9 48.7,382.2 43.6,382.2 	"/>
	<path class="st1" d="M217.6,297.3l0,0.4c0.8-0.4,1.6-0.9,2.4-1.4C219.2,296.7,218.4,297,217.6,297.3z"/>
	<polygon class="st1" points="149.9,384.9 155,384.9 155.5,382.2 150.4,382.2 	"/>
	<polygon class="st1" points="216.7,384.9 221.8,384.9 221.5,382.2 216.4,382.2 	"/>
	<path class="st1" d="M302.4,234.7c1.4-0.4,2.9-0.7,4.6-0.8c-0.8-0.1-1.7-0.1-2.6-0.1c-0.3,0-0.5,0-0.7,0c-0.3,0.2-0.6,0.4-0.8,0.6
		C302.7,234.4,302.6,234.5,302.4,234.7z"/>
	<path class="st1" d="M280.6,387.2c0.8,0,1.7,0.1,2.5,0.1c12.5,0,22.7-2.3,30.6-6.9c0.4-0.2,0.7-0.4,1-0.6
		c-3.8,1.7-8.1,2.9-12.8,3.8C295.9,385.7,288.7,387,280.6,387.2z"/>
	<polygon class="st1" points="402.6,384.9 407.7,384.9 408.7,382.2 403.6,382.2 	"/>
	<polygon class="st1" points="481.5,384.9 486.6,384.9 487.1,382.2 482,382.2 	"/>
	<path class="st1" d="M544.7,384.9h5.1c13.5,0,24.4-2,32.8-6.1c1.4-0.7,2.7-1.4,4-2.2c-4,1.8-8.6,3.2-13.8,4.1
		C565.2,383.5,555.8,384.9,544.7,384.9z"/>
	<polygon class="st2" points="714.1,234.8 719.2,234.8 719.7,232 714.6,232 	"/>
	<polygon class="st2" points="688.7,384.9 693.8,384.9 694.3,382.2 689.2,382.2 	"/>
	<polygon class="st2" points="693.1,306.2 698.2,306.2 698.7,303.5 693.6,303.5 	"/>
	<path class="st1" d="M800.8,297.7c0.8-0.4,1.6-0.9,2.4-1.4c-0.8,0.4-1.6,0.7-2.5,1L800.8,297.7z"/>
	<polygon class="st1" points="733.1,384.9 738.2,384.9 738.7,382.2 733.6,382.2 	"/>
	<polygon class="st1" points="799.9,384.9 805,384.9 804.7,382.2 799.6,382.2 	"/>
	<polygon class="st3" points="48.7,382.2 53.4,382.2 66.1,308.3 61.4,308.3 	"/>
	<path class="st3" d="M85.8,283.8c0.3-0.1,0.6-0.3,0.8-0.4c-1.4,0.1-2.8,0.2-4.3,0.2H70.4l8.4-48.8h-4.7l-8.9,51.5h6.8
		C77.7,286.2,82.3,285.4,85.8,283.8z"/>
	<path class="st3" d="M97.1,212.6c10.3,0,18.4,1.9,24.2,5.7c5.8,3.8,9.6,9.4,11.4,16.7c1.8,7.3,1.8,16.1,0,26.5
		c-1.9,11.2-5.4,20.2-10.4,27.1c-3.6,5-7.9,9-12.8,12c7.1-3.1,13.1-8,17.9-14.7c5-6.9,8.5-15.9,10.4-27.1c1.8-10.4,1.8-19.2,0-26.5
		c-1.8-7.3-5.6-12.9-11.4-16.7c-5.8-3.8-13.9-5.7-24.2-5.7H51.6l-0.5,2.7H92H97.1z"/>
	<path class="st4" d="M122.3,288.7c5-6.9,8.5-15.9,10.4-27.1c1.8-10.4,1.8-19.2,0-26.5c-1.8-7.3-5.6-12.9-11.4-16.7
		c-5.8-3.8-13.9-5.7-24.2-5.7H92c10.3,0,18.4,1.9,24.2,5.7c5.8,3.8,9.6,9.4,11.4,16.7c1.8,7.3,1.8,16.1,0,26.5
		c-1.9,11.2-5.4,20.2-10.4,27.1c-5,6.9-11.2,11.9-18.6,15c-0.8,0.3-1.6,0.6-2.4,0.9c4.5-0.8,8.7-2,12.7-3.6c0.2-0.1,0.5-0.2,0.7-0.3
		C114.4,297.6,118.6,293.7,122.3,288.7z"/>
	<polygon class="st4" points="69,234.8 60.2,286.2 65.3,286.2 74.1,234.8 	"/>
	<polygon class="st4" points="56.3,308.3 43.6,382.2 48.7,382.2 61.4,308.3 	"/>
	<path class="st3" d="M191.7,283.6c0.2-0.1,0.4-0.2,0.6-0.3c-1.7,0.2-3.5,0.3-5.4,0.3h-9.8l8.5-49.4H181l-9,52.1h4.7
		C182.8,286.2,187.8,285.3,191.7,283.6z"/>
	<polygon class="st3" points="155.5,382.2 160.2,382.2 173.3,306 168.6,306 	"/>
	<path class="st3" d="M221.5,382.2h5.5l-9.4-84.5c-1.6,0.9-3.4,1.6-5.2,2.3L221.5,382.2z"/>
	<path class="st3" d="M194.5,212.6c11.6,0,21.2,1.4,28.7,4.1c7.5,2.8,12.8,7.5,15.9,14.1c3,6.7,3.6,15.7,1.6,27.2
		c-1.2,6.9-2.9,13.2-5.1,18.7c-2.2,5.5-5.2,10.2-8.9,14.1c-1.9,2-4.1,3.8-6.6,5.3c4.7-2,8.6-4.7,11.7-8c3.7-3.9,6.7-8.6,8.9-14.1
		c2.2-5.5,3.9-11.8,5.1-18.7c2-11.5,1.4-20.6-1.6-27.2c-3-6.7-8.3-11.4-15.9-14.1c-7.5-2.8-17.1-4.1-28.7-4.1h-41.3l-0.5,2.7h31.5
		H194.5z"/>
	<path class="st4" d="M220,296.3c2.5-1.5,4.7-3.3,6.6-5.3c3.7-3.9,6.7-8.6,8.9-14.1c2.2-5.5,3.9-11.8,5.1-18.7
		c2-11.5,1.4-20.6-1.6-27.2c-3-6.7-8.3-11.4-15.9-14.1c-7.5-2.8-17.1-4.1-28.7-4.1h-5.1c11.6,0,21.2,1.4,28.7,4.1
		c7.5,2.8,12.8,7.5,15.9,14.1c3,6.7,3.6,15.7,1.6,27.2c-1.2,6.9-2.9,13.2-5.1,18.7c-2.2,5.5-5.2,10.2-8.9,14.1
		c-3.7,3.9-8.5,6.9-14.2,9l9.1,82.2h5.1l-9.1-82.2c1.8-0.7,3.6-1.5,5.2-2.3l0-0.4C218.4,297,219.2,296.7,220,296.3z"/>
	<polygon class="st4" points="163.5,306 150.4,382.2 155.5,382.2 168.6,306 	"/>
	<polygon class="st4" points="175.9,234.1 166.9,286.2 172,286.2 181,234.1 	"/>
	<path class="st3" d="M292.2,361.4c-5.1,0-8.7-1.1-10.9-3.4c-2.2-2.3-3.3-5.4-3.4-9.4c-0.1-4,0.3-8.3,1.1-13l13.7-79.3
		c0.8-4.8,2-9.1,3.5-13c1.4-3.6,3.5-6.5,6.2-8.7c-1.8,0.5-3.4,1.3-4.7,2.3c-2.9,2.2-5.2,5.2-6.7,9c-1.5,3.8-2.7,8.2-3.5,13
		l-13.7,79.3c-0.8,4.7-1.2,9-1.1,13c0.1,4,1.2,7.1,3.4,9.4c1.8,1.9,4.6,3,8.4,3.3c3.5-0.3,6.4-1.2,8.6-2.6
		C292.9,361.4,292.6,361.4,292.2,361.4z"/>
	<path class="st3" d="M347,214.6c-6.4-4.4-15.8-6.6-28.3-6.6c-9.3,0-17.4,1.3-24.2,3.8c4.3-0.7,9-1.1,14-1.1c0.9,0,1.7,0,2.6,0.1
		c0.8,0,1.7-0.1,2.5-0.1c12.5,0,21.9,2.2,28.3,6.6c6.4,4.4,10.5,10.7,12.2,19c1.8,8.3,1.6,18.3-0.4,29.9l-11.1,64.7
		c-2,11.5-5.3,21.4-9.9,29.9c-4.4,8.1-10.4,14.4-17.9,18.9c1.4-0.6,2.8-1.3,4.1-2.1c8-4.6,14.3-11.1,18.9-19.6
		c4.6-8.4,8-18.4,9.9-29.9l11.1-64.7c2-11.6,2.1-21.6,0.4-29.9C357.5,225.3,353.4,219,347,214.6z"/>
	<path class="st4" d="M332.6,360.8c4.6-8.4,8-18.4,9.9-29.9l11.1-64.7c2-11.6,2.1-21.6,0.4-29.9c-1.8-8.3-5.8-14.6-12.2-19
		c-6.4-4.4-15.8-6.6-28.3-6.6c-0.9,0-1.7,0-2.5,0.1c11.2,0.3,19.8,2.5,25.8,6.5c6.4,4.4,10.5,10.7,12.2,19
		c1.8,8.3,1.6,18.3-0.4,29.9l-11.1,64.7c-2,11.5-5.3,21.4-9.9,29.9c-4.6,8.4-10.9,15-18.9,19.6c-2.1,1.2-4.3,2.2-6.6,3.1
		c4.7-0.8,8.9-2.1,12.8-3.8C322.2,375.1,328.2,368.8,332.6,360.8z"/>
	<path class="st4" d="M285.9,246c-1.5,3.8-2.7,8.2-3.5,13l-13.7,79.3c-0.8,4.7-1.2,9-1.1,13c0.1,4,1.2,7.1,3.4,9.4
		c2.2,2.3,5.8,3.4,10.9,3.4c0.9,0,1.8,0,2.6-0.1c-3.8-0.3-6.6-1.4-8.4-3.3c-2.2-2.3-3.3-5.4-3.4-9.4c-0.1-4,0.3-8.3,1.1-13
		l13.7-79.3c0.8-4.8,2-9.1,3.5-13c1.5-3.8,3.7-6.8,6.7-9c1.4-1,2.9-1.8,4.7-2.3c0.1-0.1,0.3-0.3,0.4-0.4c0.3-0.2,0.6-0.4,0.8-0.6
		c-4.6,0.1-8.3,1.2-11.1,3.3C289.7,239.2,287.5,242.2,285.9,246z"/>
	<polygon class="st3" points="399.5,212.6 401.1,320.4 406.1,306 404.7,209.9 376.8,209.9 376.9,212.6 394.4,212.6 	"/>
	<polygon class="st3" points="477.2,209.9 448.7,209.9 447.8,212.6 467,212.6 472.1,212.6 408.7,382.2 412.9,382.2 	"/>
	<polygon class="st4" points="467,212.6 403.6,382.2 408.7,382.2 472.1,212.6 	"/>
	<polygon class="st4" points="394.4,212.6 396.2,334.5 401.1,320.4 399.5,212.6 	"/>
	<polygon class="st3" points="521.4,209.9 490.4,209.9 489.9,212.6 511.2,212.6 516.3,212.6 487.1,382.2 491.8,382.2 	"/>
	<polygon class="st4" points="511.2,212.6 482,382.2 487.1,382.2 516.3,212.6 	"/>
	<path class="st3" d="M628.8,263.5c2.1-12.2,2.2-22.3,0.2-30.2c-2-7.9-6.6-13.8-13.8-17.7c-7.2-3.8-17.8-5.7-31.9-5.7h-40.6
		l-0.5,2.7h30.8h5.1c14,0,24.7,1.9,31.9,5.7c7.2,3.8,11.8,9.7,13.8,17.7c2,7.9,1.9,18-0.2,30.2l-10.8,63
		c-2.1,12.5-5.6,22.9-10.4,31.2c-4,6.9-9.2,12.3-15.7,16.3c0.4-0.2,0.7-0.3,1.1-0.5c8.4-4,15-10.2,19.8-18.5
		c4.8-8.3,8.2-18.7,10.4-31.2L628.8,263.5z"/>
	<path class="st3" d="M547.6,363c6.3,0,11.2-1,14.7-2.9c-1.4,0.1-2.9,0.2-4.4,0.2h-9.6L569.9,235c-0.2,0-0.4,0-0.6,0h-4.1l-22.1,128
		H547.6z"/>
	<polygon class="st4" points="543.1,363 565.2,235 560.1,235 538.1,363 	"/>
	<path class="st4" d="M602.4,360.4c4.8-8.3,8.2-18.7,10.4-31.2l10.8-63c2.1-12.2,2.2-22.3,0.2-30.2c-2-7.9-6.6-13.8-13.8-17.7
		c-7.2-3.8-17.8-5.7-31.9-5.7h-5.1c14,0,24.7,1.9,31.9,5.7c7.2,3.8,11.8,9.7,13.8,17.7c2,7.9,1.9,18-0.2,30.2l-10.8,63
		c-2.1,12.5-5.6,22.9-10.4,31.2c-4.8,8.3-11.4,14.5-19.8,18.5c-1.5,0.7-3,1.3-4.6,1.9c5.2-0.9,9.7-2.3,13.8-4.1
		C593.2,372.7,598.4,367.3,602.4,360.4z"/>
	<polygon class="st3" points="669.9,284.3 696.9,284.3 702,284.3 698.7,303.5 703.4,303.5 707.1,281.6 675,281.6 683.1,234.8 
		678.4,234.8 	"/>
	<polygon class="st3" points="723,212.6 719.7,232 724.4,232 728.2,209.9 655.9,209.9 655.4,212.6 717.9,212.6 	"/>
	<polygon class="st3" points="702.7,360.5 661.4,360.5 670.8,306.2 666.1,306.2 656.3,363.2 692.4,363.2 697.5,363.2 694.3,382.2 
		698.9,382.2 	"/>
	<polygon class="st4" points="692.4,363.2 689.2,382.2 694.3,382.2 697.5,363.2 	"/>
	<polygon class="st4" points="651.2,363.2 656.3,363.2 666.1,306.2 661,306.2 	"/>
	<polygon class="st4" points="673.3,234.8 664.8,284.3 669.9,284.3 678.4,234.8 	"/>
	<polygon class="st4" points="696.9,284.3 693.6,303.5 698.7,303.5 702,284.3 	"/>
	<polygon class="st4" points="717.9,212.6 714.6,232 719.7,232 723,212.6 	"/>
	<path class="st3" d="M804.7,382.2h5.5l-9.4-84.5c-1.6,0.9-3.4,1.6-5.2,2.3L804.7,382.2z"/>
	<path class="st3" d="M827.5,228.2c-3-6.7-8.3-11.4-15.9-14.1c-7.5-2.8-17.1-4.1-28.7-4.1h-41.3l-0.5,2.7h31.5h5.1
		c11.6,0,21.2,1.4,28.7,4.1c7.5,2.8,12.8,7.5,15.9,14.1c3,6.7,3.6,15.7,1.6,27.2c-1.2,6.9-2.9,13.2-5.1,18.7
		c-2.2,5.5-5.2,10.2-8.9,14.1c-1.9,2-4.1,3.8-6.6,5.3c4.7-2,8.6-4.7,11.7-8c3.7-3.9,6.7-8.6,8.9-14.1c2.2-5.5,3.9-11.8,5.1-18.7
		C831,244,830.5,234.9,827.5,228.2z"/>
	<path class="st3" d="M775,283.6c0.2-0.1,0.4-0.2,0.6-0.3c-1.7,0.2-3.5,0.3-5.4,0.3h-9.8l8.5-49.4h-4.7l-9,52.1h4.7
		C766,286.2,771,285.3,775,283.6z"/>
	<polygon class="st3" points="738.7,382.2 743.4,382.2 756.5,306 751.8,306 	"/>
	<polygon class="st4" points="746.7,306 733.6,382.2 738.7,382.2 751.8,306 	"/>
	<polygon class="st4" points="759.1,234.1 750.1,286.2 755.2,286.2 764.2,234.1 	"/>
	<path class="st4" d="M818.7,276.9c2.2-5.5,3.9-11.8,5.1-18.7c2-11.5,1.4-20.6-1.6-27.2c-3-6.7-8.3-11.4-15.9-14.1
		c-7.5-2.8-17.1-4.1-28.7-4.1h-5.1c11.6,0,21.2,1.4,28.7,4.1c7.5,2.8,12.8,7.5,15.9,14.1c3,6.7,3.6,15.7,1.6,27.2
		c-1.2,6.9-2.9,13.2-5.1,18.7c-2.2,5.5-5.2,10.2-8.9,14.1c-3.7,3.9-8.5,6.9-14.2,9l9.1,82.2h5.1l-9.1-82.2c1.8-0.7,3.6-1.5,5.2-2.3
		l0-0.4c0.8-0.3,1.7-0.7,2.5-1c2.5-1.5,4.7-3.3,6.6-5.3C813.5,287.1,816.5,282.4,818.7,276.9z"/>
	<polygon class="st2" points="41.4,212.6 11.7,384.9 16.8,384.9 46.4,212.6 	"/>
	<path class="st2" d="M98.8,275.9c1.8-3.6,3.3-8.5,4.3-14.6c1.1-6.2,1.5-11.3,1.2-15.2c-0.3-3.9-1.7-6.8-4.5-8.6
		c-2.7-1.8-7.4-2.8-13.9-2.8h-5.1c6.5,0,11.1,0.9,13.9,2.8c2.7,1.8,4.2,4.7,4.5,8.6c0.2,3.9-0.2,9-1.2,15.2c-1,6.1-2.5,11-4.3,14.6
		c-1.7,3.3-4.1,5.8-7.1,7.4c2.8-0.2,5.2-0.7,7.3-1.4C96,280.4,97.6,278.4,98.8,275.9z"/>
	<polygon class="st5" points="21.9,382.2 51.1,212.6 46.4,212.6 16.8,384.9 43.2,384.9 43.6,382.2 	"/>
	<path class="st5" d="M83.6,305.6h-17l-0.5,2.7h7.2c8.4,0,15.9-1.3,22.8-3.7C92.2,305.3,88,305.6,83.6,305.6z"/>
	<path class="st5" d="M86,234.8c6.5,0,11.1,0.9,13.9,2.8c2.7,1.8,4.2,4.7,4.5,8.6c0.2,3.9-0.2,9-1.2,15.2c-1,6.1-2.5,11-4.3,14.6
		c-1.2,2.5-2.9,4.4-4.9,6c0.7-0.2,1.4-0.5,2.1-0.8c3.5-1.6,6.1-4.3,7.9-7.9c1.8-3.6,3.3-8.5,4.3-14.6c1.1-6.2,1.5-11.3,1.2-15.2
		c-0.3-3.9-1.7-6.8-4.5-8.6c-2.7-1.8-7.4-2.8-13.9-2.8H79.3l-0.5,2.7h2.1H86z"/>
	<path class="st5" d="M85.8,283.8c-3.5,1.6-8,2.4-13.7,2.4h5.1c5.7,0,10.2-0.8,13.7-2.4c1.1-0.5,2.1-1.2,3.1-1.9
		c-2.1,0.7-4.6,1.2-7.3,1.4C86.3,283.5,86.1,283.6,85.8,283.8z"/>
	<path class="st6" d="M83.6,305.6c4.4,0,8.5-0.4,12.5-1c0.8-0.3,1.6-0.6,2.4-0.9c7.4-3.1,13.6-8.1,18.6-15c5-6.9,8.5-15.9,10.4-27.1
		c1.8-10.4,1.8-19.2,0-26.5c-1.8-7.3-5.6-12.9-11.4-16.7c-5.8-3.8-13.9-5.7-24.2-5.7H51.1L21.9,382.2h21.7l12.7-73.9h5.1h4.7
		l0.5-2.7H83.6z M60.2,286.2l8.9-51.5h5.1h4.7l0.5-2.7h11.9c6.5,0,11.1,0.9,13.9,2.8c2.7,1.8,4.2,4.7,4.5,8.6
		c0.2,3.9-0.2,9-1.2,15.2c-1,6.1-2.5,11-4.3,14.6c-1.8,3.6-4.5,6.2-7.9,7.9c-0.7,0.3-1.4,0.6-2.1,0.8c-0.9,0.7-2,1.4-3.1,1.9
		c-3.5,1.6-8,2.4-13.7,2.4h-5.1h-6.8H60.2z"/>
	<polygon class="st2" points="178,306 185.2,384.9 190.3,384.9 183.1,306 	"/>
	<polygon class="st2" points="148.1,212.6 118.5,384.9 123.6,384.9 153.2,212.6 	"/>
	<path class="st2" d="M206.1,275.1c2.2-3.9,3.9-8.9,4.9-15c1.5-8.6,1-15.1-1.4-19.5c-2.4-4.3-8.1-6.5-17.1-6.5h-5.1
		c8.9,0,14.6,2.2,17.1,6.5c2.4,4.3,2.9,10.8,1.4,19.5c-1,6.1-2.7,11.1-4.9,15c-2.1,3.7-5,6.4-8.6,8.2c3-0.3,5.6-0.9,7.9-1.7
		C202.6,279.9,204.5,277.7,206.1,275.1z"/>
	<polygon class="st5" points="195.5,382.2 188.2,303.3 173.8,303.3 173.3,306 178,306 183.1,306 190.3,384.9 216.7,384.9 
		216.4,382.2 	"/>
	<polygon class="st5" points="128.7,382.2 157.9,212.6 153.2,212.6 123.6,384.9 149.9,384.9 150.4,382.2 	"/>
	<path class="st5" d="M192.5,234.1c8.9,0,14.6,2.2,17.1,6.5c2.4,4.3,2.9,10.8,1.4,19.5c-1,6.1-2.7,11.1-4.9,15
		c-1.5,2.7-3.4,4.8-5.7,6.5c0.6-0.2,1.1-0.4,1.7-0.7c3.9-1.8,7-4.6,9.2-8.5c2.2-3.9,3.9-8.9,4.9-15c1.5-8.6,1-15.1-1.4-19.5
		c-2.4-4.3-8.1-6.5-17.1-6.5h-11.5l-0.5,2.7h1.7H192.5z"/>
	<path class="st5" d="M191.7,283.6c-3.9,1.8-8.9,2.7-15,2.7h5.1c6.1,0,11.1-0.9,15-2.7c1.2-0.6,2.4-1.2,3.5-2
		c-2.3,0.8-5,1.4-7.9,1.7C192.2,283.4,192,283.5,191.7,283.6z"/>
	<path class="st6" d="M188.2,303.3l7.3,78.9h20.9l-9.1-82.2c5.8-2.1,10.5-5.1,14.2-9c3.7-3.9,6.7-8.6,8.9-14.1
		c2.2-5.5,3.9-11.8,5.1-18.7c2-11.5,1.4-20.6-1.6-27.2c-3-6.7-8.3-11.4-15.9-14.1c-7.5-2.8-17.1-4.1-28.7-4.1h-31.5l-29.2,169.6
		h21.7l13.1-76.2h5.1h4.7l0.5-2.7H188.2z M166.9,286.2l9-52.1h5.1h4.7l0.5-2.7h11.5c8.9,0,14.6,2.2,17.1,6.5
		c2.4,4.3,2.9,10.8,1.4,19.5c-1,6.1-2.7,11.1-4.9,15c-2.2,3.9-5.3,6.7-9.2,8.5c-0.5,0.2-1.1,0.5-1.7,0.7c-1.1,0.8-2.2,1.5-3.5,2
		c-3.9,1.8-8.9,2.7-15,2.7h-5.1H172H166.9z"/>
	<path class="st2" d="M243,360.9c-1.7-8.5-1.5-18.6,0.5-30.2l11.1-64.4c2-11.6,5.3-21.6,9.8-29.9c4.5-8.3,10.8-14.6,18.8-19
		c1.1-0.6,2.3-1.2,3.5-1.7c0.6-0.3,1.1-0.7,1.7-1c1.9-1,3.9-2,6.1-2.7c-6.2,1.1-11.6,2.9-16.3,5.5c-8,4.4-14.3,10.7-18.8,19
		c-4.6,8.3-7.8,18.3-9.8,29.9l-11.1,64.4c-2,11.6-2.2,21.7-0.5,30.2c1.7,8.5,5.7,15,12.2,19.6c6.5,4.5,15.8,6.8,28,6.8
		c0.9,0,1.7,0,2.6-0.1c-10.9-0.3-19.4-2.5-25.4-6.7C248.7,375.9,244.6,369.4,243,360.9z"/>
	<path class="st2" d="M305.9,351.3c1.5-4,2.7-8.3,3.5-13l13.7-79.3c0.8-4.8,1.1-9.1,1-13c-0.2-3.8-1.3-6.8-3.4-9
		c-2.1-2.2-5.8-3.3-11-3.3c-0.9,0-1.7,0-2.5,0.1c3.9,0.3,6.7,1.4,8.4,3.2c2.1,2.2,3.3,5.2,3.4,9c0.2,3.8-0.1,8.2-1,13l-13.7,79.3
		c-0.8,4.7-2,9-3.5,13c-1.5,4-3.7,7.1-6.6,9.4c-0.3,0.2-0.6,0.5-1,0.7c2.4-0.1,4.5-0.4,6.3-0.9C302.3,358.2,304.4,355.1,305.9,351.3
		z"/>
	<path class="st5" d="M307,233.8c0.8-0.1,1.6-0.1,2.5-0.1c5.2,0,8.9,1.1,11,3.3c2.1,2.2,3.3,5.2,3.4,9c0.2,3.8-0.1,8.2-1,13
		l-13.7,79.3c-0.8,4.7-2,9-3.5,13c-1.5,3.8-3.6,6.9-6.3,9.1c1.9-0.6,3.5-1.4,4.9-2.4c2.9-2.3,5.1-5.4,6.6-9.4c1.5-4,2.7-8.3,3.5-13
		l13.7-79.3c0.8-4.8,1.1-9.1,1-13c-0.2-3.8-1.3-6.8-3.4-9c-2.1-2.2-5.8-3.3-11-3.3c-4.5,0-8.2,0.9-11,2.7c0.2,0,0.5,0,0.7,0
		C305.4,233.7,306.2,233.7,307,233.8z"/>
	<path class="st5" d="M288.2,384.6c-12.2,0-21.5-2.3-28-6.8c-6.4-4.5-10.5-11.1-12.2-19.6c-1.7-8.5-1.5-18.6,0.5-30.2l11.1-64.4
		c2-11.6,5.3-21.6,9.8-29.9c4.2-7.7,9.9-13.7,17.1-18c-1.2,0.5-2.4,1.1-3.5,1.7c-8,4.4-14.3,10.7-18.8,19
		c-4.6,8.3-7.8,18.3-9.8,29.9l-11.1,64.4c-2,11.6-2.2,21.7-0.5,30.2c1.7,8.5,5.7,15,12.2,19.6c6,4.2,14.5,6.4,25.4,6.7
		c8.2-0.2,15.3-1.5,21.5-3.7C297.8,384.2,293.2,384.6,288.2,384.6z"/>
	<path class="st5" d="M286.7,215.6c6.8-3,14.9-4.6,24.3-4.8c-0.9,0-1.7-0.1-2.6-0.1c-5,0-9.7,0.4-14,1.1c-2.1,0.8-4.2,1.7-6.1,2.7
		C287.8,214.9,287.2,215.3,286.7,215.6z"/>
	<path class="st5" d="M284.6,364c0.8,0.1,1.6,0.1,2.5,0.1c5.2,0,9.3-1.1,12.2-3.4c0.1-0.1,0.2-0.2,0.3-0.3c-1.9,0.6-4,0.9-6.3,0.9
		C291,362.8,288.1,363.7,284.6,364z"/>
	<path class="st6" d="M269.6,233.6c-4.6,8.3-7.8,18.3-9.8,29.9L248.6,328c-2,11.6-2.2,21.7-0.5,30.2c1.7,8.5,5.7,15,12.2,19.6
		c6.5,4.5,15.8,6.8,28,6.8c5,0,9.5-0.4,13.8-1.1c2.4-0.9,4.6-1.9,6.6-3.1c8-4.6,14.3-11.1,18.9-19.6c4.6-8.4,8-18.4,9.9-29.9
		l11.1-64.7c2-11.6,2.1-21.6,0.4-29.9c-1.8-8.3-5.8-14.6-12.2-19c-6-4.1-14.6-6.2-25.8-6.5c-9.4,0.2-17.5,1.8-24.3,4.8
		C279.5,220,273.8,226,269.6,233.6z M314.7,231c5.2,0,8.9,1.1,11,3.3c2.1,2.2,3.3,5.2,3.4,9c0.2,3.8-0.1,8.2-1,13l-13.7,79.3
		c-0.8,4.7-2,9-3.5,13c-1.5,4-3.7,7.1-6.6,9.4c-1.4,1.1-3,1.9-4.9,2.4c-0.1,0.1-0.2,0.2-0.3,0.3c-2.9,2.3-6.9,3.4-12.2,3.4
		c-0.9,0-1.7,0-2.5-0.1c-0.8,0.1-1.7,0.1-2.6,0.1c-5.1,0-8.7-1.1-10.9-3.4c-2.2-2.3-3.3-5.4-3.4-9.4c-0.1-4,0.3-8.3,1.1-13
		l13.7-79.3c0.8-4.8,2-9.1,3.5-13c1.5-3.8,3.7-6.8,6.7-9c2.8-2.1,6.5-3.2,11.1-3.3C306.5,231.9,310.2,231,314.7,231z"/>
	<polygon class="st2" points="366.6,212.6 371.6,384.9 376.7,384.9 371.7,212.6 	"/>
	<polygon class="st2" points="443.6,212.6 438.5,212.6 406.1,306 406.3,320.1 	"/>
	<polygon class="st5" points="406.4,331.8 447.8,212.6 443.6,212.6 406.3,320.1 	"/>
	<polygon class="st5" points="381.8,382.2 376.9,212.6 371.7,212.6 376.7,384.9 402.6,384.9 403.6,382.2 	"/>
	<polygon class="st2" points="401.3,334.5 406.3,320.1 406.1,306 401.1,320.4 	"/>
	<polygon class="st6" points="403.6,382.2 467,212.6 447.8,212.6 406.4,331.8 406.3,320.1 401.3,334.5 401.1,320.4 396.2,334.5 
		394.4,212.6 376.9,212.6 381.8,382.2 	"/>
	<polygon class="st2" points="480.1,212.6 450.5,384.9 455.6,384.9 485.2,212.6 	"/>
	<polygon class="st5" points="460.7,382.2 489.9,212.6 485.2,212.6 455.6,384.9 481.5,384.9 482,382.2 	"/>
	<polygon class="st6" points="482,382.2 511.2,212.6 489.9,212.6 460.7,382.2 	"/>
	<path class="st2" d="M583.8,237.9c2.8,2,4.3,5.1,4.6,9.4c0.3,4.3-0.2,9.9-1.4,16.8L575.6,330c-1.2,7.1-2.6,13.1-4.2,18
		c-1.6,4.9-4.1,8.6-7.7,11.2c-0.5,0.3-1,0.6-1.5,0.9c2.7-0.2,5.1-0.7,7.1-1.4c3.3-2.5,5.6-6.1,7.1-10.7c1.6-4.9,2.9-10.9,4.2-18
		l11.4-65.9c1.2-6.9,1.7-12.5,1.4-16.8c-0.3-4.3-1.8-7.4-4.6-9.4c-2.8-2-7.6-3-14.6-3h-4.5l0,0C576.5,235,581.1,236,583.8,237.9z"/>
	<polygon class="st2" points="532.5,212.6 502.8,384.9 507.9,384.9 537.6,212.6 	"/>
	<path class="st5" d="M554.9,382.2H513l29.2-169.6h-4.7l-29.7,172.3h36.8c11.1,0,20.5-1.4,28.2-4.2
		C567.5,381.7,561.5,382.2,554.9,382.2z"/>
	<path class="st5" d="M588.9,237.9c2.8,2,4.3,5.1,4.6,9.4c0.3,4.3-0.2,9.9-1.4,16.8L580.7,330c-1.2,7.1-2.6,13.1-4.2,18
		c-1.5,4.6-3.8,8.2-7.1,10.7c1.8-0.6,3.3-1.3,4.6-2.3c3.6-2.6,6.1-6.3,7.7-11.2c1.6-4.9,2.9-10.9,4.2-18l11.4-65.9
		c1.2-6.9,1.7-12.5,1.4-16.8c-0.3-4.3-1.8-7.4-4.6-9.4c-2.8-2-7.6-3-14.6-3h-9.1l-0.5,2.7h4.5C581.3,235,586.2,236,588.9,237.9z"/>
	<path class="st5" d="M569.9,235h-0.6C569.5,235,569.7,235,569.9,235L569.9,235z"/>
	<path class="st5" d="M547.6,363h5.1c7.2,0,12.6-1.3,16.2-3.8c0.2-0.1,0.4-0.3,0.6-0.4c-2.1,0.7-4.4,1.1-7.1,1.4
		C558.8,362,553.9,363,547.6,363z"/>
	<path class="st6" d="M554.9,382.2c6.6,0,12.6-0.5,18-1.5c1.6-0.6,3.2-1.2,4.6-1.9c8.4-4,15-10.2,19.8-18.5
		c4.8-8.3,8.2-18.7,10.4-31.2l10.8-63c2.1-12.2,2.2-22.3,0.2-30.2c-2-7.9-6.6-13.8-13.8-17.7c-7.2-3.8-17.8-5.7-31.9-5.7h-30.8
		L513,382.2H554.9z M565.2,235h4.1h0.6l0.5-2.7h9.1c6.9,0,11.8,1,14.6,3c2.8,2,4.3,5.1,4.6,9.4c0.3,4.3-0.2,9.9-1.4,16.8l-11.4,65.9
		c-1.2,7.1-2.6,13.1-4.2,18c-1.6,4.9-4.1,8.6-7.7,11.2c-1.3,0.9-2.8,1.7-4.6,2.3c-0.2,0.1-0.4,0.3-0.6,0.4c-3.6,2.6-9,3.8-16.2,3.8
		h-5.1h-4.5h-5.1l22.1-128H565.2z"/>
	<polygon class="st2" points="645.6,212.6 616,384.9 621,384.9 650.7,212.6 	"/>
	<polygon class="st5" points="671.2,303.5 670.8,306.2 693.1,306.2 693.6,303.5 	"/>
	<polygon class="st5" points="626.2,382.2 655.4,212.6 650.7,212.6 621,384.9 688.7,384.9 689.2,382.2 	"/>
	<polygon class="st5" points="683.5,232 683.1,234.8 714.1,234.8 714.6,232 	"/>
	<polygon class="st6" points="689.2,382.2 692.4,363.2 656.3,363.2 651.2,363.2 661,306.2 666.1,306.2 670.8,306.2 671.2,303.5 
		693.6,303.5 696.9,284.3 669.9,284.3 664.8,284.3 673.3,234.8 678.4,234.8 683.1,234.8 683.5,232 714.6,232 717.9,212.6 
		655.4,212.6 626.2,382.2 	"/>
	<polygon class="st2" points="731.3,212.6 701.7,384.9 706.8,384.9 736.4,212.6 	"/>
	<path class="st2" d="M789.3,275.1c2.2-3.9,3.9-8.9,4.9-15c1.5-8.6,1-15.1-1.4-19.5c-2.4-4.3-8.1-6.5-17.1-6.5h-5.1
		c8.9,0,14.6,2.2,17.1,6.5c2.4,4.3,2.9,10.8,1.4,19.5c-1,6.1-2.7,11.1-4.9,15c-2.1,3.7-5,6.4-8.6,8.2c3-0.3,5.6-0.9,7.9-1.7
		C785.8,279.9,787.8,277.7,789.3,275.1z"/>
	<polygon class="st2" points="761.2,306 768.5,384.9 773.6,384.9 766.3,306 	"/>
	<polygon class="st5" points="711.9,382.2 741.1,212.6 736.4,212.6 706.8,384.9 733.1,384.9 733.6,382.2 	"/>
	<path class="st5" d="M775.7,234.1c8.9,0,14.6,2.2,17.1,6.5c2.4,4.3,2.9,10.8,1.4,19.5c-1,6.1-2.7,11.1-4.9,15
		c-1.5,2.7-3.4,4.8-5.7,6.5c0.6-0.2,1.1-0.4,1.7-0.7c3.9-1.8,7-4.6,9.2-8.5c2.2-3.9,3.9-8.9,4.9-15c1.5-8.6,1-15.1-1.4-19.5
		c-2.4-4.3-8.1-6.5-17.1-6.5h-11.5l-0.5,2.7h1.7H775.7z"/>
	<polygon class="st5" points="778.7,382.2 771.5,303.3 757,303.3 756.5,306 761.2,306 766.3,306 773.6,384.9 799.9,384.9 
		799.6,382.2 	"/>
	<path class="st5" d="M775,283.6c-3.9,1.8-8.9,2.7-15,2.7h5.1c6.1,0,11.1-0.9,15-2.7c1.2-0.6,2.4-1.2,3.5-2c-2.3,0.8-5,1.4-7.9,1.7
		C775.4,283.4,775.2,283.5,775,283.6z"/>
	<path class="st6" d="M771.5,303.3l7.3,78.9h20.9l-9.1-82.2c5.8-2.1,10.5-5.1,14.2-9c3.7-3.9,6.7-8.6,8.9-14.1
		c2.2-5.5,3.9-11.8,5.1-18.7c2-11.5,1.4-20.6-1.6-27.2c-3-6.7-8.3-11.4-15.9-14.1c-7.5-2.8-17.1-4.1-28.7-4.1h-31.5l-29.2,169.6
		h21.7l13.1-76.2h5.1h4.7l0.5-2.7H771.5z M750.1,286.2l9-52.1h5.1h4.7l0.5-2.7h11.5c8.9,0,14.6,2.2,17.1,6.5
		c2.4,4.3,2.9,10.8,1.4,19.5c-1,6.1-2.7,11.1-4.9,15c-2.2,3.9-5.3,6.7-9.2,8.5c-0.5,0.2-1.1,0.5-1.7,0.7c-1.1,0.8-2.2,1.5-3.5,2
		c-3.9,1.8-8.9,2.7-15,2.7h-5.1h-4.7H750.1z"/>
</g>
</svg>
