<svg xmlns="http://www.w3.org/2000/svg" viewBox="0 0 64 64"><defs><style>.cls-1{fill:none;}.cls-2{fill:#e5007e;}.cls-3{fill:blue;}.cls-4{fill:#009ee2;}.cls-5{fill:red;}.cls-6{fill:#ffec00;}.cls-7{fill:#fff;}</style></defs><g id="Capa_4" data-name="Capa 4"><path class="cls-1" d="M34.21,27.59c.49,0,.95,0,1.39-.06a5.44,5.44,0,0,0,2.28-2.39,16.89,16.89,0,0,0,1.39-4.68,22.2,22.2,0,0,0,.4-4.89,3.43,3.43,0,0,0-1.44-2.77,8.37,8.37,0,0,0-4.46-.88h-.68l-2.7,15.67Z"/><path class="cls-2" d="M42.71,33.19a18.72,18.72,0,0,1-4.06,1.17,21.19,21.19,0,0,1-7.31,1.2H33a20.72,20.72,0,0,0,8.09-1.5,14,14,0,0,0,1.88-1Z"/><polygon class="cls-2" points="21.63 60.16 23.27 60.16 23.42 59.29 21.78 59.29 21.63 60.16"/><polygon class="cls-3" points="23.42 59.29 24.93 59.29 29.01 35.56 27.51 35.56 23.42 59.29"/><path class="cls-3" d="M35.33,27.67l.27-.14c-.44,0-.9.06-1.39.06H30.39l2.7-15.67H31.58L28.73,28.45h2.19A10.56,10.56,0,0,0,35.33,27.67Z"/><path class="cls-3" d="M39,4.81q5,0,7.78,1.84A8.65,8.65,0,0,1,50.39,12a21.23,21.23,0,0,1,0,8.51,20.55,20.55,0,0,1-3.34,8.71,14.37,14.37,0,0,1-4.11,3.84,14,14,0,0,0,5.76-4.71,20.55,20.55,0,0,0,3.35-8.71,21,21,0,0,0,0-8.51,8.58,8.58,0,0,0-3.65-5.36c-1.86-1.23-4.46-1.85-7.78-1.85H24.35l-.15.87H39Z"/><path class="cls-4" d="M47.05,29.24a20.55,20.55,0,0,0,3.34-8.71,21.23,21.23,0,0,0,0-8.51,8.65,8.65,0,0,0-3.66-5.37Q43.94,4.81,39,4.81H37.32q5,0,7.78,1.84A8.6,8.6,0,0,1,48.75,12a21,21,0,0,1,0,8.51,20.55,20.55,0,0,1-3.35,8.71,14.09,14.09,0,0,1-6,4.82l-.77.3a18.72,18.72,0,0,0,4.06-1.17l.23-.11A14.37,14.37,0,0,0,47.05,29.24Z"/><polygon class="cls-4" points="29.94 11.92 27.09 28.45 28.73 28.45 31.58 11.92 29.94 11.92"/><polygon class="cls-4" points="25.87 35.56 21.78 59.29 23.42 59.29 27.51 35.56 25.87 35.56"/><polygon class="cls-5" points="21.05 4.81 11.52 60.16 13.16 60.16 22.69 4.81 21.05 4.81"/><path class="cls-5" d="M39.52,25.14a16.89,16.89,0,0,0,1.39-4.68,22.09,22.09,0,0,0,.39-4.89,3.42,3.42,0,0,0-1.43-2.77,8.37,8.37,0,0,0-4.46-.88H33.77a8.37,8.37,0,0,1,4.46.88,3.43,3.43,0,0,1,1.44,2.77,22.2,22.2,0,0,1-.4,4.89,16.89,16.89,0,0,1-1.39,4.68,5.44,5.44,0,0,1-2.28,2.39A9.67,9.67,0,0,0,38,27.06,5.42,5.42,0,0,0,39.52,25.14Z"/><polygon class="cls-6" points="14.81 59.29 24.2 4.81 22.69 4.81 13.16 60.16 21.63 60.16 21.78 59.29 14.81 59.29"/><path class="cls-6" d="M34.63,34.69H29.16l-.15.87h2.33a21.19,21.19,0,0,0,7.31-1.2A23.54,23.54,0,0,1,34.63,34.69Z"/><path class="cls-6" d="M35.41,11.92a8.37,8.37,0,0,1,4.46.88,3.42,3.42,0,0,1,1.43,2.77,22.09,22.09,0,0,1-.39,4.89,16.89,16.89,0,0,1-1.39,4.68A5.42,5.42,0,0,1,38,27.06a5.84,5.84,0,0,0,.67-.26,5.31,5.31,0,0,0,2.55-2.53,16.89,16.89,0,0,0,1.39-4.68A21.56,21.56,0,0,0,43,14.7a3.37,3.37,0,0,0-1.44-2.76,8.24,8.24,0,0,0-4.46-.89H33.24l-.15.87h2.32Z"/><path class="cls-6" d="M35.33,27.67a10.56,10.56,0,0,1-4.41.78h1.64a10.48,10.48,0,0,0,4.4-.78,5,5,0,0,0,1-.61,9.67,9.67,0,0,1-2.35.47Z"/><path class="cls-7" d="M34.63,34.69a23.54,23.54,0,0,0,4-.33l.77-.3a14.09,14.09,0,0,0,6-4.82,20.55,20.55,0,0,0,3.35-8.71,21,21,0,0,0,0-8.51A8.6,8.6,0,0,0,45.1,6.65q-2.81-1.85-7.78-1.84H24.2L14.81,59.29h7l4.09-23.73H29l.15-.87Zm-7.54-6.24,2.85-16.53h3.15l.15-.87h3.82a8.24,8.24,0,0,1,4.46.89A3.37,3.37,0,0,1,43,14.7a21.56,21.56,0,0,1-.4,4.89,16.89,16.89,0,0,1-1.39,4.68,5.31,5.31,0,0,1-2.55,2.53,5.84,5.84,0,0,1-.67.26,5,5,0,0,1-1,.61,10.48,10.48,0,0,1-4.4.78H27.09Z"/></g></svg>